<svg width="111" height="111" viewBox="0 0 111 111" fill="none" xmlns="http://www.w3.org/2000/svg">
<g id="&#230;&#156;&#137;&#231;&#169;&#186;&#232;&#180;&#167;&#230;&#158;&#182;">
<path id="Vector" d="M99.418 87.2337C99.418 85.0581 98.091 83.1911 96.1932 82.4042V80.7995C96.1932 78.6239 94.8662 76.7569 92.9684 75.97V47.3787H94.1719C95.2828 47.3787 96.1777 46.4838 96.1777 45.3729V37.3186C96.1777 36.2076 95.2828 35.3127 94.1719 35.3127L39.4273 34.9717C38.3164 34.9717 37.4215 35.8666 37.4215 36.9776V45.3729C37.4215 46.4838 38.3164 47.3787 39.4273 47.3787H40.6309V75.5534H32.1754V14.4621C40.7389 12.1477 36.4683 13.4776 36.4683 13.4776C38.1501 13.0301 34.7401 13.4776 36.4683 13.4776C35.3882 13.7553 34.9683 8.97755 34.9683 8.97755C35.246 10.0576 33.9036 9.25528 34.9683 8.97755C36.3106 8.62267 33.5796 8.97755 34.9683 8.97755C33.9683 8.97755 37.1592 9.66351 29.5061 10.9133C29.4289 10.9287 29.3363 10.9442 29.2592 10.9596C29.1049 10.975 28.9352 11.0059 28.7654 11.0213C28.6574 11.0367 28.5648 11.0522 28.4568 11.0522C28.318 11.0676 28.1791 11.0676 28.0402 11.083C27.9168 11.0985 27.7934 11.0985 27.6699 11.1139C27.5465 11.1139 27.4076 11.1139 27.2842 11.1293H26.559C26.4355 11.1293 26.2967 11.1293 26.1732 11.1139C26.0498 11.1139 25.9264 11.0985 25.8029 11.083C25.6641 11.0676 25.5252 11.0676 25.3863 11.0522C25.2783 11.0367 25.1857 11.0367 25.0777 11.0213C24.908 11.0059 24.7537 10.9905 24.584 10.9596C24.5068 10.9442 24.4143 10.9287 24.3371 10.9287C16.684 9.69437 27.4683 10.9776 23.4683 10.4776C24.4403 11.033 24.0237 9.52092 23.4683 10.4776C24.0237 9.50549 22.5116 9.92209 23.4683 10.4776C21.7093 13.5326 21.9683 6.9596 21.9683 10.4776L21.6832 14.4776V75.5688H15.249C12.3637 75.5688 10.0184 77.9141 10.0184 80.7995V82.4042C8.13594 83.1911 6.79356 85.0581 6.79356 87.2337C6.79356 89.4092 8.12051 91.2762 10.0184 92.0631V93.6678C10.0184 96.5532 12.3637 98.8985 15.249 98.8985C18.1344 98.8985 20.4797 96.5532 20.4797 93.6678V92.4643H85.7318V93.6678C85.7318 96.5532 88.0771 98.8985 90.9625 98.8985C93.8479 98.8985 96.1932 96.5532 96.1932 93.6678V92.0631C98.0756 91.2762 99.418 89.4092 99.418 87.2337ZM12.0705 88.4372C11.4225 88.4372 10.867 87.8817 10.867 87.2337C10.867 86.5856 11.4225 86.0301 12.0705 86.0301H94.1873C94.8354 86.0301 95.3908 86.5856 95.3908 87.2337C95.3908 87.8817 94.8354 88.4372 94.1873 88.4372H12.0705ZM92.166 43.3516H76.8752V39.3244H92.166V43.3516ZM60.7666 47.3787H72.848V54.1832L71.7371 53.6278C71.1662 53.35 70.5027 53.35 69.9318 53.6278L66.7996 55.1862L63.6674 53.6278C63.0965 53.35 62.433 53.35 61.8621 53.6278L60.7512 54.1832V47.3787H60.7666ZM60.7666 43.3516V39.3244H72.848V43.3516H60.7666ZM41.4486 39.3399H56.7395V43.367H41.4486V39.3399ZM44.6734 47.3787H56.7549V57.4389C56.7549 58.1333 57.1098 58.7813 57.7115 59.1516C58.2979 59.5219 59.0385 59.5528 59.6711 59.2442L62.8033 57.6858L65.9355 59.2442C66.5064 59.5219 67.1699 59.5219 67.7408 59.2442L70.873 57.6858L73.9898 59.2442C74.2676 59.3831 74.5762 59.4602 74.8848 59.4602C75.2551 59.4602 75.6254 59.3522 75.9494 59.1516C76.5357 58.7813 76.9061 58.1333 76.9061 57.4389V47.3787H88.9875V75.5534H44.7043V47.3787H44.6734ZM25.7566 15.1256H25.8184C25.9572 15.1256 26.0807 15.141 26.2195 15.141H26.3893C26.5744 15.141 26.775 15.1565 26.9602 15.1565C27.1453 15.1565 27.3459 15.1565 27.5311 15.141H27.7008C27.8397 15.141 27.9785 15.1256 28.102 15.1256H28.1637V75.5688H25.7412V15.1256H25.7566ZM14.0764 80.7995C14.0764 80.1514 14.6318 79.596 15.2799 79.596H90.9625C91.6105 79.596 92.166 80.1514 92.166 80.7995V82.003H14.0764V80.7995ZM16.4988 93.6678C16.4988 94.3159 15.9434 94.8714 15.2953 94.8714C14.6473 94.8714 14.0918 94.3159 14.0918 93.6678V92.4643H16.5143V93.6678H16.4988ZM92.166 93.6678C92.166 94.3159 91.6105 94.8714 90.9625 94.8714C90.3145 94.8714 89.759 94.3159 89.759 93.6678V92.4643H92.1814V93.6678H92.166Z" fill="#4E5969"/>
<path id="Vector_2" d="M70.8887 69.5203H70.8424C69.7314 69.5203 68.8365 70.4152 68.8365 71.5261C68.8365 72.6371 69.7314 73.532 70.8424 73.532H70.8887C71.9996 73.532 72.8945 72.6371 72.8945 71.5261C72.8945 70.4306 71.9996 69.5203 70.8887 69.5203ZM84.9297 69.5203H76.6748C75.5639 69.5203 74.6689 70.4152 74.6689 71.5261C74.6689 72.6371 75.5639 73.532 76.6748 73.532H84.9297C86.0406 73.532 86.9355 72.6371 86.9355 71.5261C86.9355 70.4306 86.0406 69.5203 84.9297 69.5203Z" fill="#4E5969"/>
<rect id="Rectangle 967" width="30" height="8" transform="matrix(-1 0 0 1 41.4688 7.97754)" fill="#4E5969"/>
<rect id="Rectangle 2379" width="45" height="28" transform="matrix(-1 0 0 1 89.7305 46.9431)" fill="white"/>
<rect id="Rectangle 2380" x="89.7305" y="43.3433" width="45" height="4" transform="rotate(180 89.7305 43.3433)" fill="white"/>
</g>
</svg>
