<svg width="111" height="111" viewBox="0 0 111 111" fill="none" xmlns="http://www.w3.org/2000/svg">
<g id="&#230;&#151;&#160;&#232;&#180;&#167;&#230;&#158;&#182;">
<path id="Vector" d="M99.4492 87.2337C99.4492 85.0581 98.1223 83.1911 96.2244 82.4042V80.7995C96.2244 78.6239 94.8975 76.7569 92.9996 75.97V47.3787H94.2031C95.3141 47.3787 96.209 46.4838 96.209 45.3729V37.3186C96.209 36.2076 95.3141 35.3127 94.2031 35.3127L39.4586 34.9717C38.3477 34.9717 37.4527 35.8666 37.4527 36.9776V45.3729C37.4527 46.4838 38.3477 47.3787 39.4586 47.3787H40.6621V75.5534H32.2066V14.4621C40.7701 12.1477 36.4995 13.4776 36.4995 13.4776C38.1813 13.0301 34.7714 13.4776 36.4995 13.4776C35.4194 13.7553 34.9995 8.97755 34.9995 8.97755C35.2772 10.0576 33.9349 9.25528 34.9995 8.97755C36.3419 8.62267 33.6108 8.97755 34.9995 8.97755C33.9995 8.97755 37.1904 9.66351 29.5373 10.9133C29.4602 10.9287 29.3676 10.9442 29.2904 10.9596C29.1361 10.975 28.9664 11.0059 28.7967 11.0213C28.6887 11.0367 28.5961 11.0522 28.4881 11.0522C28.3492 11.0676 28.2104 11.0676 28.0715 11.083C27.9481 11.0985 27.8246 11.0985 27.7012 11.1139C27.5777 11.1139 27.4389 11.1139 27.3154 11.1293H26.5902C26.4668 11.1293 26.3279 11.1293 26.2045 11.1139C26.0811 11.1139 25.9576 11.0985 25.8342 11.083C25.6953 11.0676 25.5564 11.0676 25.4176 11.0522C25.3096 11.0367 25.217 11.0367 25.109 11.0213C24.9393 11.0059 24.785 10.9905 24.6152 10.9596C24.5381 10.9442 24.4455 10.9287 24.3684 10.9287C16.7152 9.69437 27.4995 10.9776 23.4995 10.4776C24.4716 11.033 24.055 9.52092 23.4995 10.4776C24.055 9.50549 22.5429 9.92209 23.4995 10.4776C21.7405 13.5326 21.9995 6.9596 21.9995 10.4776L21.7145 14.4776V75.5688H15.2803C12.3949 75.5688 10.0496 77.9141 10.0496 80.7995V82.4042C8.16719 83.1911 6.82481 85.0581 6.82481 87.2337C6.82481 89.4092 8.15176 91.2762 10.0496 92.0631V93.6678C10.0496 96.5532 12.3949 98.8985 15.2803 98.8985C18.1656 98.8985 20.5109 96.5532 20.5109 93.6678V92.4643H85.7631V93.6678C85.7631 96.5532 88.1084 98.8985 90.9937 98.8985C93.8791 98.8985 96.2244 96.5532 96.2244 93.6678V92.0631C98.1068 91.2762 99.4492 89.4092 99.4492 87.2337ZM12.1018 88.4372C11.4537 88.4372 10.8982 87.8817 10.8982 87.2337C10.8982 86.5856 11.4537 86.0301 12.1018 86.0301H94.2186C94.8666 86.0301 95.4221 86.5856 95.4221 87.2337C95.4221 87.8817 94.8666 88.4372 94.2186 88.4372H12.1018ZM92.1973 43.3516H76.9064V39.3244H92.1973V43.3516ZM60.7978 47.3787H72.8793V54.1832L71.7684 53.6278C71.1975 53.35 70.534 53.35 69.9631 53.6278L66.8309 55.1862L63.6986 53.6278C63.1277 53.35 62.4643 53.35 61.8934 53.6278L60.7824 54.1832V47.3787H60.7978ZM60.7978 43.3516V39.3244H72.8793V43.3516H60.7978ZM41.4799 39.3399H56.7707V43.367H41.4799V39.3399ZM44.7047 47.3787H56.7861V57.4389C56.7861 58.1333 57.141 58.7813 57.7428 59.1516C58.3291 59.5219 59.0697 59.5528 59.7023 59.2442L62.8346 57.6858L65.9668 59.2442C66.5377 59.5219 67.2012 59.5219 67.7721 59.2442L70.9043 57.6858L74.0211 59.2442C74.2988 59.3831 74.6074 59.4602 74.916 59.4602C75.2863 59.4602 75.6566 59.3522 75.9807 59.1516C76.567 58.7813 76.9373 58.1333 76.9373 57.4389V47.3787H89.0188V75.5534H44.7355V47.3787H44.7047ZM25.7879 15.1256H25.8496C25.9885 15.1256 26.1119 15.141 26.2508 15.141H26.4205C26.6057 15.141 26.8063 15.1565 26.9914 15.1565C27.1766 15.1565 27.3772 15.1565 27.5623 15.141H27.732C27.8709 15.141 28.0098 15.1256 28.1332 15.1256H28.1949V75.5688H25.7725V15.1256H25.7879ZM14.1076 80.7995C14.1076 80.1514 14.6631 79.596 15.3111 79.596H90.9937C91.6418 79.596 92.1973 80.1514 92.1973 80.7995V82.003H14.1076V80.7995ZM16.5301 93.6678C16.5301 94.3159 15.9746 94.8714 15.3266 94.8714C14.6785 94.8714 14.123 94.3159 14.123 93.6678V92.4643H16.5455V93.6678H16.5301ZM92.1973 93.6678C92.1973 94.3159 91.6418 94.8714 90.9937 94.8714C90.3457 94.8714 89.7902 94.3159 89.7902 93.6678V92.4643H92.2127V93.6678H92.1973Z" fill="#4E5969"/>
<path id="Vector_2" d="M70.9199 69.5203H70.8736C69.7627 69.5203 68.8678 70.4152 68.8678 71.5261C68.8678 72.6371 69.7627 73.532 70.8736 73.532H70.9199C72.0309 73.532 72.9258 72.6371 72.9258 71.5261C72.9258 70.4306 72.0309 69.5203 70.9199 69.5203ZM84.9609 69.5203H76.7061C75.5951 69.5203 74.7002 70.4152 74.7002 71.5261C74.7002 72.6371 75.5951 73.532 76.7061 73.532H84.9609C86.0719 73.532 86.9668 72.6371 86.9668 71.5261C86.9668 70.4306 86.0719 69.5203 84.9609 69.5203Z" fill="#4E5969"/>
<rect id="Rectangle 967" width="30" height="8" transform="matrix(-1 0 0 1 41.5 7.97754)" fill="#4E5969"/>
<rect id="Rectangle 965" width="63" height="41" transform="matrix(-1 0 0 1 99.5 34.4775)" fill="white"/>
</g>
</svg>
