<svg width="110" height="119" viewBox="0 0 110 119" fill="none" xmlns="http://www.w3.org/2000/svg">
<g id="&#231;&#169;&#186;&#232;&#180;&#167;&#230;&#158;&#182;">
<path id="Vector" d="M100.949 94.0809C100.949 91.9053 99.6223 90.0383 97.7244 89.2514V87.6467C97.7244 85.4711 96.3975 83.6041 94.4996 82.8172V54.226H95.7031C96.8141 54.226 97.709 53.3311 97.709 52.2202V44.1659C97.709 43.0549 96.8141 42.16 95.7031 42.16H40.9586C39.8477 42.16 38.9527 43.0549 38.9527 44.1659V52.2202C38.9527 53.3311 39.8477 54.226 40.9586 54.226H42.1621V82.4006H33.7066V42.268C42.2701 39.9536 48.5963 32.1153 48.5963 22.8266C48.5963 11.7327 39.5699 2.7063 28.476 2.7063C26.7478 2.7063 25.0197 2.92231 23.3379 3.36978C22.2578 3.64751 21.6252 4.75845 21.9029 5.8231C22.1807 6.90317 23.2916 7.53579 24.3563 7.25806C25.6986 6.90317 27.0719 6.73345 28.4605 6.73345C37.3326 6.73345 44.5537 13.9545 44.5537 22.8266C44.5537 30.8192 38.6904 37.4694 31.0373 38.7192C30.9602 38.7346 30.8676 38.75 30.7904 38.7655C30.6361 38.7809 30.4664 38.8118 30.2967 38.8272C30.1887 38.8426 30.0961 38.8581 29.9881 38.8581C29.8492 38.8735 29.7104 38.8735 29.5715 38.8889C29.4481 38.9044 29.3246 38.9043 29.2012 38.9198C29.0777 38.9198 28.9389 38.9198 28.8154 38.9352H28.0902C27.9668 38.9352 27.8279 38.9352 27.7045 38.9198C27.5811 38.9198 27.4576 38.9044 27.3342 38.8889C27.1953 38.8735 27.0564 38.8735 26.9176 38.8581C26.8096 38.8426 26.717 38.8426 26.609 38.8272C26.4393 38.8118 26.285 38.7963 26.1152 38.7655C26.0381 38.75 25.9455 38.7346 25.8684 38.7346C18.2152 37.5002 12.352 30.8346 12.352 22.842C12.352 20.0184 13.0926 17.2411 14.5121 14.7877C15.0676 13.8311 14.7436 12.5967 13.7715 12.0413C12.8148 11.4858 11.5805 11.8098 11.025 12.7819C9.26601 15.837 8.32481 19.3241 8.32481 22.842C8.32481 32.1307 14.651 39.969 23.2145 42.2834V82.4161H16.7803C13.8949 82.4161 11.5496 84.7614 11.5496 87.6467V89.2514C9.66719 90.0383 8.32481 91.9053 8.32481 94.0809C8.32481 96.2565 9.65176 98.1235 11.5496 98.9104V100.515C11.5496 103.4 13.8949 105.746 16.7803 105.746C19.6656 105.746 22.0109 103.4 22.0109 100.515V99.3116H87.2631V100.515C87.2631 103.4 89.6084 105.746 92.4937 105.746C95.3791 105.746 97.7244 103.4 97.7244 100.515V98.9104C99.6068 98.1235 100.949 96.2565 100.949 94.0809ZM13.6018 95.2844C12.9537 95.2844 12.3982 94.729 12.3982 94.0809C12.3982 93.4329 12.9537 92.8774 13.6018 92.8774H95.7186C96.3666 92.8774 96.9221 93.4329 96.9221 94.0809C96.9221 94.729 96.3666 95.2844 95.7186 95.2844H13.6018ZM93.6973 50.1989H78.4064V46.1717H93.6973V50.1989ZM62.2978 50.1989V46.1717H74.3793V50.1989H62.2978ZM42.9799 46.1872H58.2707V50.2143H42.9799V46.1872ZM27.2879 42.9315H27.3496C27.4885 42.9315 27.6119 42.9469 27.7508 42.9469H27.9205C28.1057 42.9469 28.3063 42.9624 28.4914 42.9624C28.6766 42.9624 28.8772 42.9624 29.0623 42.9469H29.232C29.3709 42.9469 29.5098 42.9315 29.6332 42.9315H29.6949V82.4161H27.2725V42.9315H27.2879ZM15.6076 87.6467C15.6076 86.9987 16.1631 86.4432 16.8111 86.4432H92.4937C93.1418 86.4432 93.6973 86.9987 93.6973 87.6467V88.8502H15.6076V87.6467ZM18.0301 100.515C18.0301 101.163 17.4746 101.719 16.8266 101.719C16.1785 101.719 15.623 101.163 15.623 100.515V99.3116H18.0455V100.515H18.0301ZM93.6973 100.515C93.6973 101.163 93.1418 101.719 92.4937 101.719C91.8457 101.719 91.2902 101.163 91.2902 100.515V99.3116H93.7127V100.515H93.6973Z" fill="#4E5969"/>
<path id="Vector_2" d="M28.4926 8.75494C27.3816 8.75494 26.4867 9.64986 26.4867 10.7608V19.3551C25.2832 20.0495 24.4809 21.3456 24.4809 22.8422C24.4809 25.0641 26.2861 26.8694 28.508 26.8694C30.7299 26.8694 32.5352 25.0641 32.5352 22.8422C32.5352 21.361 31.7174 20.0649 30.5293 19.3551V10.7608C30.4984 9.64986 29.6035 8.75494 28.4926 8.75494ZM16.5809 11.2083C17.0438 11.2083 17.5221 11.0385 17.9078 10.7145L17.9232 10.6991C18.7564 9.97389 18.849 8.69322 18.1238 7.86002C17.3986 7.02682 16.118 6.93424 15.2848 7.65943L15.2693 7.67486C14.4361 8.40006 14.3436 9.68072 15.0688 10.5139C15.4545 10.9768 16.01 11.2083 16.5809 11.2083Z" fill="#4E5969"/>
<rect id="Rectangle 2379" width="45" height="28" transform="matrix(-1 0 0 1 91 53.825)" fill="white"/>
<rect id="Rectangle 2380" x="91" y="50.2249" width="45" height="4" transform="rotate(180 91 50.2249)" fill="white"/>
</g>
</svg>
