<svg width="110" height="119" viewBox="0 0 110 119" fill="none" xmlns="http://www.w3.org/2000/svg">
<g id="&#230;&#156;&#137;&#232;&#180;&#167;&#230;&#158;&#182;&#228;&#184;&#148;&#230;&#156;&#137;&#232;&#180;&#167;&#231;&#137;&#169;">
<path id="Vector" d="M100.949 93.5809C100.949 91.4053 99.6223 89.5383 97.7244 88.7514V87.1467C97.7244 84.9711 96.3975 83.1041 94.4996 82.3172V53.726H95.7031C96.8141 53.726 97.709 52.8311 97.709 51.7202V43.6659C97.709 42.5549 96.8141 41.66 95.7031 41.66H40.9586C39.8477 41.66 38.9527 42.5549 38.9527 43.6659V51.7202C38.9527 52.8311 39.8477 53.726 40.9586 53.726H42.1621V81.9006H33.7066V41.768C42.2701 39.4536 48.5963 31.6153 48.5963 22.3266C48.5963 11.2327 39.5699 2.2063 28.476 2.2063C26.7478 2.2063 25.0197 2.42231 23.3379 2.86978C22.2578 3.14751 21.6252 4.25845 21.9029 5.3231C22.1807 6.40317 23.2916 7.03579 24.3563 6.75806C25.6986 6.40317 27.0719 6.23345 28.4605 6.23345C37.3326 6.23345 44.5537 13.4545 44.5537 22.3266C44.5537 30.3192 38.6904 36.9694 31.0373 38.2192C30.9602 38.2346 30.8676 38.25 30.7904 38.2655C30.6361 38.2809 30.4664 38.3118 30.2967 38.3272C30.1887 38.3426 30.0961 38.3581 29.9881 38.3581C29.8492 38.3735 29.7104 38.3735 29.5715 38.3889C29.4481 38.4043 29.3246 38.4043 29.2012 38.4198C29.0777 38.4198 28.9389 38.4198 28.8154 38.4352H28.0902C27.9668 38.4352 27.8279 38.4352 27.7045 38.4198C27.5811 38.4198 27.4576 38.4043 27.3342 38.3889C27.1953 38.3735 27.0564 38.3735 26.9176 38.3581C26.8096 38.3426 26.717 38.3426 26.609 38.3272C26.4393 38.3118 26.285 38.2963 26.1152 38.2655C26.0381 38.25 25.9455 38.2346 25.8684 38.2346C18.2152 37.0002 12.352 30.3346 12.352 22.342C12.352 19.5184 13.0926 16.7411 14.5121 14.2877C15.0676 13.3311 14.7436 12.0967 13.7715 11.5413C12.8148 10.9858 11.5805 11.3098 11.025 12.2819C9.26601 15.337 8.32481 18.8241 8.32481 22.342C8.32481 31.6307 14.651 39.469 23.2145 41.7834V81.9161H16.7803C13.8949 81.9161 11.5496 84.2614 11.5496 87.1467V88.7514C9.66719 89.5383 8.32481 91.4053 8.32481 93.5809C8.32481 95.7565 9.65176 97.6235 11.5496 98.4104V100.015C11.5496 102.9 13.8949 105.246 16.7803 105.246C19.6656 105.246 22.0109 102.9 22.0109 100.015V98.8116H87.2631V100.015C87.2631 102.9 89.6084 105.246 92.4937 105.246C95.3791 105.246 97.7244 102.9 97.7244 100.015V98.4104C99.6068 97.6235 100.949 95.7565 100.949 93.5809ZM13.6018 94.7844C12.9537 94.7844 12.3982 94.229 12.3982 93.5809C12.3982 92.9329 12.9537 92.3774 13.6018 92.3774H95.7186C96.3666 92.3774 96.9221 92.9329 96.9221 93.5809C96.9221 94.229 96.3666 94.7844 95.7186 94.7844H13.6018ZM93.6973 49.6989H78.4064V45.6717H93.6973V49.6989ZM62.2978 53.726H74.3793V60.5305L73.2684 59.975C72.6975 59.6973 72.034 59.6973 71.4631 59.975L68.3309 61.5334L65.1986 59.975C64.6277 59.6973 63.9643 59.6973 63.3934 59.975L62.2824 60.5305V53.726H62.2978ZM62.2978 49.6989V45.6717H74.3793V49.6989H62.2978ZM42.9799 45.6872H58.2707V49.7143H42.9799V45.6872ZM46.2047 53.726H58.2861V63.7862C58.2861 64.4805 58.641 65.1286 59.2428 65.4989C59.8291 65.8692 60.5697 65.9 61.2023 65.5915L64.3346 64.0331L67.4668 65.5915C68.0377 65.8692 68.7012 65.8692 69.2721 65.5915L72.4043 64.0331L75.5211 65.5915C75.7988 65.7303 76.1074 65.8075 76.416 65.8075C76.7863 65.8075 77.1566 65.6995 77.4807 65.4989C78.067 65.1286 78.4373 64.4805 78.4373 63.7862V53.726H90.5188V81.9006H46.2355V53.726H46.2047ZM27.2879 42.4315H27.3496C27.4885 42.4315 27.6119 42.4469 27.7508 42.4469H27.9205C28.1057 42.4469 28.3063 42.4624 28.4914 42.4624C28.6766 42.4624 28.8772 42.4624 29.0623 42.4469H29.232C29.3709 42.4469 29.5098 42.4315 29.6332 42.4315H29.6949V81.9161H27.2725V42.4315H27.2879ZM15.6076 87.1467C15.6076 86.4987 16.1631 85.9432 16.8111 85.9432H92.4937C93.1418 85.9432 93.6973 86.4987 93.6973 87.1467V88.3502H15.6076V87.1467ZM18.0301 100.015C18.0301 100.663 17.4746 101.219 16.8266 101.219C16.1785 101.219 15.623 100.663 15.623 100.015V98.8116H18.0455V100.015H18.0301ZM93.6973 100.015C93.6973 100.663 93.1418 101.219 92.4937 101.219C91.8457 101.219 91.2902 100.663 91.2902 100.015V98.8116H93.7127V100.015H93.6973Z" fill="#4E5969"/>
<path id="Vector_2" d="M28.4916 8.25494C27.3807 8.25494 26.4857 9.14986 26.4857 10.2608V18.8551C25.2822 19.5495 24.4799 20.8456 24.4799 22.3422C24.4799 24.5641 26.2852 26.3694 28.507 26.3694C30.7289 26.3694 32.5342 24.5641 32.5342 22.3422C32.5342 20.861 31.7164 19.5649 30.5283 18.8551V10.2608C30.4975 9.14986 29.6025 8.25494 28.4916 8.25494ZM72.4199 75.8678H72.3736C71.2627 75.8678 70.3678 76.7627 70.3678 77.8737C70.3678 78.9846 71.2627 79.8795 72.3736 79.8795H72.4199C73.5309 79.8795 74.4258 78.9846 74.4258 77.8737C74.4258 76.7782 73.5309 75.8678 72.4199 75.8678ZM86.4609 75.8678H78.2061C77.0951 75.8678 76.2002 76.7627 76.2002 77.8737C76.2002 78.9846 77.0951 79.8795 78.2061 79.8795H86.4609C87.5719 79.8795 88.4668 78.9846 88.4668 77.8737C88.4668 76.7782 87.5719 75.8678 86.4609 75.8678ZM16.5799 10.7083C17.0428 10.7083 17.5211 10.5385 17.9068 10.2145L17.9223 10.1991C18.7555 9.47389 18.848 8.19322 18.1229 7.36002C17.3977 6.52682 16.117 6.43424 15.2838 7.15943L15.2684 7.17486C14.4352 7.90006 14.3426 9.18072 15.0678 10.0139C15.4535 10.4768 16.009 10.7083 16.5799 10.7083Z" fill="#4E5969"/>
</g>
</svg>
