<svg width="450" height="450" viewBox="0 0 450 450" fill="none" xmlns="http://www.w3.org/2000/svg">
<g clip-path="url(#clip0_233_32382)">
<path fill-rule="evenodd" clip-rule="evenodd" d="M279.375 169.75L411 121.375V323.875L279.375 372.25V169.75Z" fill="#4473FF"/>
<path fill-rule="evenodd" clip-rule="evenodd" d="M67.875 92.125L279.375 169.75V372.25L67.875 293.5V92.125Z" fill="#DAE8FF"/>
<path fill-rule="evenodd" clip-rule="evenodd" d="M112.875 160.75L234.375 204.625V355.375L112.875 310.375V160.75Z" fill="#0035D3" stroke="#979797" stroke-width="1.125"/>
<path fill-rule="evenodd" clip-rule="evenodd" d="M112.875 160.75L234.375 204.625V266.5L112.875 310.375V160.75Z" fill="#527EFF"/>
<path fill-rule="evenodd" clip-rule="evenodd" d="M200.301 45.1115L411.731 122.066L279.7 169.513L68.2688 92.5588L200.301 45.1115Z" fill="#8DB9FF"/>
<path d="M8.86425 71.1433L326.011 186.575" stroke="white" stroke-width="1.125" stroke-linecap="square"/>
<path d="M8.86425 122.893L326.011 238.325" stroke="white" stroke-width="1.125" stroke-linecap="square"/>
<path d="M112.875 30.25L112.875 379" stroke="white" stroke-width="1.125" stroke-linecap="square"/>
<path d="M67.875 14.5L67.875 363.25" stroke="white" stroke-width="1.125" stroke-linecap="square"/>
<path d="M234.375 75.25L234.375 424" stroke="white" stroke-width="1.125" stroke-linecap="square"/>
<path d="M279.375 91V439.75" stroke="white" stroke-width="1.125" stroke-linecap="square"/>
<path d="M225.81 189.139L426.669 116.032" stroke="white" stroke-width="1.125" stroke-linecap="square"/>
<path d="M225.81 391.639L426.669 318.532" stroke="white" stroke-width="1.125" stroke-linecap="square"/>
<g clip-path="url(#clip1_233_32382)">
<path fill-rule="evenodd" clip-rule="evenodd" d="M4.875 332.999L13.875 336.25V373.375L4.875 370L4.875 332.999Z" fill="#2478FF"/>
<path fill-rule="evenodd" clip-rule="evenodd" d="M13.875 343.173L24 339.798V369.437L13.875 373.375V343.173Z" fill="#0035D3"/>
<path fill-rule="evenodd" clip-rule="evenodd" d="M114.373 286.544L250.126 336.25L135.004 378.08L-0.748746 328.375L114.373 286.544Z" fill="#84B3FF"/>
<path fill-rule="evenodd" clip-rule="evenodd" d="M130.875 376.874L139.875 380.125V419.5L130.875 416.125L130.875 376.874Z" fill="#2478FF"/>
<path fill-rule="evenodd" clip-rule="evenodd" d="M139.875 376.923L150 373.548V415.562L139.875 419.5V376.923Z" fill="#0035D3"/>
<path fill-rule="evenodd" clip-rule="evenodd" d="M226.5 347.624L235.5 350.875V384.625L226.5 380.688V347.624Z" fill="#2478FF"/>
<path fill-rule="evenodd" clip-rule="evenodd" d="M235.5 342.048L245.625 338.673V380.687L235.5 384.625V342.048Z" fill="#0035D3"/>
<path fill-rule="evenodd" clip-rule="evenodd" d="M135.375 378.048L250.125 336.25V346.201L135.375 388V378.048Z" fill="#0035D3"/>
<path d="M113.319 396.452L261.321 342.584" stroke="white" stroke-width="1.125" stroke-linecap="square"/>
<path fill-rule="evenodd" clip-rule="evenodd" d="M-0.75 328.375L135.375 377.875V388L-0.75 338.5L-0.75 328.375Z" fill="#2478FF"/>
<path d="M113.319 386.328L261.321 332.459" stroke="white" stroke-width="1.125" stroke-linecap="square"/>
<path d="M-8.72559 335.126L149.848 392.842" stroke="white" stroke-width="1.125" stroke-linecap="square"/>
<path d="M-8.72559 325.001L149.848 382.717" stroke="white" stroke-width="1.125" stroke-linecap="square"/>
<path d="M-18.3057 334.578L129.696 280.709" stroke="white" stroke-width="1.125" stroke-linecap="square"/>
<path d="M135.375 370.562V393.062" stroke="white" stroke-width="1.125" stroke-linecap="square"/>
<path fill-rule="evenodd" clip-rule="evenodd" d="M101.396 258.021L151.126 276.062L85.6579 299.915L35.9281 281.874L101.396 258.021Z" fill="#FFE2AF"/>
<path fill-rule="evenodd" clip-rule="evenodd" d="M36.1348 281.795L85.8451 299.894V347.672L36.1348 329.31L36.1348 281.795Z" fill="#FFEBD7"/>
<path fill-rule="evenodd" clip-rule="evenodd" d="M85.8438 299.899L151.125 276.062V323.835L85.8438 347.672V299.899Z" fill="#FFC186"/>
<path d="M29.8877 279.318L93.3169 302.404" stroke="white" stroke-width="1.125" stroke-linecap="square"/>
<path d="M63.8135 267.023L127.243 290.109" stroke="white" stroke-width="1.125" stroke-linecap="round" stroke-linejoin="round"/>
<path d="M29.8877 327.693L93.3169 350.779" stroke="white" stroke-width="1.125" stroke-linecap="square"/>
<path d="M36.375 270.437L36.375 337.937" stroke="white" stroke-width="1.125" stroke-linecap="square"/>
<path d="M85.875 289.562V357.062" stroke="white" stroke-width="1.125" stroke-linecap="square"/>
<path d="M120.75 277.187V344.687" stroke="white" stroke-width="1.125" stroke-linecap="square"/>
<path d="M76.1943 303.077L160.767 272.296" stroke="white" stroke-width="1.125" stroke-linecap="square"/>
<path d="M26.6943 285.077L79.552 265.839" stroke="white" stroke-width="1.125" stroke-linecap="square"/>
<path d="M76.1943 351.452L129.052 332.214" stroke="white" stroke-width="1.125" stroke-linecap="square"/>
<path fill-rule="evenodd" clip-rule="evenodd" d="M175.909 267.182L225.639 285.223L191.409 297.665L141.679 279.624L175.909 267.182Z" fill="#FFE2AF"/>
<path fill-rule="evenodd" clip-rule="evenodd" d="M141.885 279.545L191.595 297.644V345.422L141.885 327.06V279.545Z" fill="#FFEBD7"/>
<path fill-rule="evenodd" clip-rule="evenodd" d="M191.594 297.649L226.052 285.175V332.948L191.594 345.422V297.649Z" fill="#FFC186"/>
<path d="M135.638 277.068L199.067 300.154" stroke="white" stroke-width="1.125" stroke-linecap="square"/>
<path d="M169.563 264.773L232.993 287.859" stroke="white" stroke-width="1.125" stroke-linecap="round" stroke-linejoin="round"/>
<path d="M135.638 325.443L199.067 348.53" stroke="white" stroke-width="1.125" stroke-linecap="square"/>
<path d="M142.125 268.187L142.125 335.687" stroke="white" stroke-width="1.125" stroke-linecap="square"/>
<path d="M191.625 287.312V354.812" stroke="white" stroke-width="1.125" stroke-linecap="square"/>
<path d="M226.5 274.937V342.437" stroke="white" stroke-width="1.125" stroke-linecap="square"/>
<path d="M181.944 300.828L234.802 281.589" stroke="white" stroke-width="1.125" stroke-linecap="square"/>
<path d="M132.444 282.828L185.302 263.589" stroke="white" stroke-width="1.125" stroke-linecap="square"/>
<path d="M181.944 349.202L234.802 329.964" stroke="white" stroke-width="1.125" stroke-linecap="square"/>
<path fill-rule="evenodd" clip-rule="evenodd" d="M91.4183 214.683L130.013 228.973L95.7832 241.415L57.1884 227.125L91.4183 214.683Z" fill="#FFE2AF"/>
<path fill-rule="evenodd" clip-rule="evenodd" d="M57.75 227.687L95.9692 241.394V289.172L57.75 275.5L57.75 227.687Z" fill="#FFEBD7"/>
<path fill-rule="evenodd" clip-rule="evenodd" d="M95.9707 241.399L130.429 228.925V276.698L95.9707 289.172V241.399Z" fill="#FFC186"/>
<path d="M49.0127 224.193L101.87 243.432" stroke="white" stroke-width="1.125" stroke-linecap="square"/>
<path d="M82.9385 211.898L135.796 231.136" stroke="white" stroke-width="1.125" stroke-linecap="round" stroke-linejoin="round"/>
<path d="M49.0127 272.568L101.87 291.807" stroke="white" stroke-width="1.125" stroke-linecap="square"/>
<path d="M57.75 216.437L57.75 283.937" stroke="white" stroke-width="1.125" stroke-linecap="square"/>
<path d="M96 231.062V298.562" stroke="white" stroke-width="1.125" stroke-linecap="square"/>
<path d="M130.875 218.687V286.187" stroke="white" stroke-width="1.125" stroke-linecap="square"/>
<path d="M86.3193 244.578L139.177 225.339" stroke="white" stroke-width="1.125" stroke-linecap="square"/>
<path d="M43.5693 232.202L96.427 212.964" stroke="white" stroke-width="1.125" stroke-linecap="square"/>
<path d="M86.3193 292.953L139.177 273.714" stroke="white" stroke-width="1.125" stroke-linecap="square"/>
<path fill-rule="evenodd" clip-rule="evenodd" d="M133.043 311.995L170.513 325.723L136.283 338.165L98.8134 324.437L133.043 311.995Z" fill="#FFE2AF"/>
<path fill-rule="evenodd" clip-rule="evenodd" d="M98.8125 324.437L136.469 338.144L136.5 366.062L98.8433 352.094L98.8125 324.437Z" fill="#FFEBD7"/>
<path fill-rule="evenodd" clip-rule="evenodd" d="M136.469 338.149L170.927 325.675L170.958 353.589L136.5 366.062L136.469 338.149Z" fill="#FFC186"/>
<path d="M91.3564 321.843L144.214 341.082" stroke="white" stroke-width="1.125" stroke-linecap="square"/>
<path d="M114.438 305.273L177.868 328.359" stroke="white" stroke-width="1.125" stroke-linecap="round" stroke-linejoin="round"/>
<path d="M91.3564 349.968L144.214 369.207" stroke="white" stroke-width="1.125" stroke-linecap="square"/>
<path d="M98.25 309.812V354.812" stroke="white" stroke-width="1.125" stroke-linecap="square"/>
<path d="M136.5 327.812V372.812" stroke="white" stroke-width="1.125" stroke-linecap="square"/>
<path d="M171.375 315.437V360.437" stroke="white" stroke-width="1.125" stroke-linecap="square"/>
<path d="M126.819 341.327L179.677 322.089" stroke="white" stroke-width="1.125" stroke-linecap="square"/>
<path d="M126.819 369.452L179.677 350.214" stroke="white" stroke-width="1.125" stroke-linecap="square"/>
<path d="M88.5693 327.827L141.427 308.589" stroke="white" stroke-width="1.125" stroke-linecap="square"/>
</g>
<path d="M388.001 259.333C357.809 259.333 333.334 283.808 333.334 314C333.334 344.191 357.809 368.667 388.001 368.667C418.192 368.667 442.667 344.191 442.667 314C442.667 283.808 418.192 259.333 388.001 259.333Z" fill="white" stroke="white" stroke-width="6"/>
<path fill-rule="evenodd" clip-rule="evenodd" d="M336.334 314C336.334 285.465 359.466 262.333 388.001 262.333C416.535 262.333 439.667 285.465 439.667 314C439.667 342.535 416.535 365.667 388.001 365.667C359.466 365.667 336.334 342.535 336.334 314ZM382.834 334.223L416.196 300.862L408.889 293.555L382.834 319.61L368.404 305.18L361.097 312.487L382.834 334.223Z" fill="#00B42A"/>
</g>
<defs>
<clipPath id="clip0_233_32382">
<rect width="450" height="450" fill="white"/>
</clipPath>
<clipPath id="clip1_233_32382">
<rect width="273.375" height="214.875" fill="white" transform="translate(-12 204.625)"/>
</clipPath>
</defs>
</svg>
