<svg width="428" height="433" viewBox="0 0 428 433" fill="none" xmlns="http://www.w3.org/2000/svg">
<path fill-rule="evenodd" clip-rule="evenodd" d="M279.375 161.75L411 113.375V315.875L279.375 364.25V161.75Z" fill="#4473FF"/>
<path fill-rule="evenodd" clip-rule="evenodd" d="M67.875 84.125L279.375 161.75V364.25L67.875 285.5V84.125Z" fill="#DAE8FF"/>
<path fill-rule="evenodd" clip-rule="evenodd" d="M112.875 152.75L234.375 196.625V347.375L112.875 302.375V152.75Z" fill="#0035D3" stroke="#979797" stroke-width="1.125"/>
<path fill-rule="evenodd" clip-rule="evenodd" d="M112.875 152.75L234.375 196.625V258.5L112.875 302.375V152.75Z" fill="#527EFF"/>
<path fill-rule="evenodd" clip-rule="evenodd" d="M200.302 37.1115L411.732 114.066L279.701 161.513L68.2698 84.5588L200.302 37.1115Z" fill="#8DB9FF"/>
<path d="M8.86425 63.1433L326.011 178.575" stroke="white" stroke-width="1.125" stroke-linecap="square"/>
<path d="M8.86425 114.893L326.011 230.325" stroke="white" stroke-width="1.125" stroke-linecap="square"/>
<path d="M112.875 22.25L112.875 371" stroke="white" stroke-width="1.125" stroke-linecap="square"/>
<path d="M67.875 6.5L67.875 355.25" stroke="white" stroke-width="1.125" stroke-linecap="square"/>
<path d="M234.375 67.25L234.375 416" stroke="white" stroke-width="1.125" stroke-linecap="square"/>
<path d="M279.375 83V431.75" stroke="white" stroke-width="1.125" stroke-linecap="square"/>
<path d="M225.809 181.139L426.668 108.032" stroke="white" stroke-width="1.125" stroke-linecap="square"/>
<path d="M225.809 383.639L426.668 310.532" stroke="white" stroke-width="1.125" stroke-linecap="square"/>
<g clip-path="url(#clip0_205_5191)">
<path fill-rule="evenodd" clip-rule="evenodd" d="M4.875 324.999L13.875 328.25V365.375L4.875 362L4.875 324.999Z" fill="#2478FF"/>
<path fill-rule="evenodd" clip-rule="evenodd" d="M13.875 335.173L24 331.798V361.437L13.875 365.375V335.173Z" fill="#0035D3"/>
<path fill-rule="evenodd" clip-rule="evenodd" d="M114.373 278.544L250.125 328.25L135.003 370.08L-0.749723 320.375L114.373 278.544Z" fill="#84B3FF"/>
<path fill-rule="evenodd" clip-rule="evenodd" d="M130.875 368.874L139.875 372.125V411.5L130.875 408.125L130.875 368.874Z" fill="#2478FF"/>
<path fill-rule="evenodd" clip-rule="evenodd" d="M139.875 368.923L150 365.548V407.562L139.875 411.5V368.923Z" fill="#0035D3"/>
<path fill-rule="evenodd" clip-rule="evenodd" d="M226.5 339.624L235.5 342.875V376.625L226.5 372.688V339.624Z" fill="#2478FF"/>
<path fill-rule="evenodd" clip-rule="evenodd" d="M235.5 334.048L245.625 330.673V372.687L235.5 376.625V334.048Z" fill="#0035D3"/>
<path fill-rule="evenodd" clip-rule="evenodd" d="M135.375 370.048L250.125 328.25V338.201L135.375 380V370.048Z" fill="#0035D3"/>
<path d="M113.318 388.452L261.32 334.584" stroke="white" stroke-width="1.125" stroke-linecap="square"/>
<path fill-rule="evenodd" clip-rule="evenodd" d="M-0.75 320.375L135.375 369.875V380L-0.75 330.5L-0.75 320.375Z" fill="#2478FF"/>
<path d="M113.318 378.328L261.32 324.459" stroke="white" stroke-width="1.125" stroke-linecap="square"/>
<path d="M-8.72657 327.126L149.847 384.842" stroke="white" stroke-width="1.125" stroke-linecap="square"/>
<path d="M-8.72657 317.001L149.847 374.717" stroke="white" stroke-width="1.125" stroke-linecap="square"/>
<path d="M-18.3057 326.578L129.696 272.709" stroke="white" stroke-width="1.125" stroke-linecap="square"/>
<path d="M135.375 362.562V385.062" stroke="white" stroke-width="1.125" stroke-linecap="square"/>
<path fill-rule="evenodd" clip-rule="evenodd" d="M101.397 250.021L151.127 268.062L85.6589 291.915L35.9291 273.874L101.397 250.021Z" fill="#FFE2AF"/>
<path fill-rule="evenodd" clip-rule="evenodd" d="M36.1348 273.795L85.8451 291.894V339.672L36.1348 321.31L36.1348 273.795Z" fill="#FFEBD7"/>
<path fill-rule="evenodd" clip-rule="evenodd" d="M85.8447 291.899L151.125 268.062V315.835L85.8447 339.672V291.899Z" fill="#FFC186"/>
<path d="M29.8887 271.318L93.3179 294.404" stroke="white" stroke-width="1.125" stroke-linecap="square"/>
<path d="M63.8144 259.023L127.244 282.109" stroke="white" stroke-width="1.125" stroke-linecap="round" stroke-linejoin="round"/>
<path d="M29.8887 319.693L93.3179 342.779" stroke="white" stroke-width="1.125" stroke-linecap="square"/>
<path d="M36.375 262.437L36.375 329.937" stroke="white" stroke-width="1.125" stroke-linecap="square"/>
<path d="M85.876 281.562V349.062" stroke="white" stroke-width="1.125" stroke-linecap="square"/>
<path d="M120.75 269.187V336.687" stroke="white" stroke-width="1.125" stroke-linecap="square"/>
<path d="M76.1943 295.077L160.767 264.296" stroke="white" stroke-width="1.125" stroke-linecap="square"/>
<path d="M26.6943 277.077L79.552 257.839" stroke="white" stroke-width="1.125" stroke-linecap="square"/>
<path d="M76.1943 343.452L129.052 324.214" stroke="white" stroke-width="1.125" stroke-linecap="square"/>
<path fill-rule="evenodd" clip-rule="evenodd" d="M175.908 259.182L225.638 277.223L191.408 289.665L141.678 271.624L175.908 259.182Z" fill="#FFE2AF"/>
<path fill-rule="evenodd" clip-rule="evenodd" d="M141.885 271.545L191.595 289.644V337.422L141.885 319.06V271.545Z" fill="#FFEBD7"/>
<path fill-rule="evenodd" clip-rule="evenodd" d="M191.595 289.649L226.053 277.175V324.948L191.595 337.422V289.649Z" fill="#FFC186"/>
<path d="M135.638 269.068L199.067 292.154" stroke="white" stroke-width="1.125" stroke-linecap="square"/>
<path d="M169.562 256.773L232.992 279.859" stroke="white" stroke-width="1.125" stroke-linecap="round" stroke-linejoin="round"/>
<path d="M135.638 317.443L199.067 340.53" stroke="white" stroke-width="1.125" stroke-linecap="square"/>
<path d="M142.125 260.187L142.125 327.687" stroke="white" stroke-width="1.125" stroke-linecap="square"/>
<path d="M191.625 279.312V346.812" stroke="white" stroke-width="1.125" stroke-linecap="square"/>
<path d="M226.5 266.937V334.437" stroke="white" stroke-width="1.125" stroke-linecap="square"/>
<path d="M181.944 292.828L234.802 273.589" stroke="white" stroke-width="1.125" stroke-linecap="square"/>
<path d="M132.444 274.828L185.302 255.589" stroke="white" stroke-width="1.125" stroke-linecap="square"/>
<path d="M181.944 341.202L234.802 321.964" stroke="white" stroke-width="1.125" stroke-linecap="square"/>
<path fill-rule="evenodd" clip-rule="evenodd" d="M91.4174 206.683L130.012 220.973L95.7822 233.415L57.1874 219.125L91.4174 206.683Z" fill="#FFE2AF"/>
<path fill-rule="evenodd" clip-rule="evenodd" d="M57.749 219.687L95.9683 233.394V281.172L57.749 267.5L57.749 219.687Z" fill="#FFEBD7"/>
<path fill-rule="evenodd" clip-rule="evenodd" d="M95.9688 233.399L130.427 220.925V268.698L95.9688 281.172V233.399Z" fill="#FFC186"/>
<path d="M49.0117 216.193L101.869 235.432" stroke="white" stroke-width="1.125" stroke-linecap="square"/>
<path d="M82.9385 203.898L135.796 223.136" stroke="white" stroke-width="1.125" stroke-linecap="round" stroke-linejoin="round"/>
<path d="M49.0117 264.568L101.869 283.807" stroke="white" stroke-width="1.125" stroke-linecap="square"/>
<path d="M57.749 208.437L57.749 275.937" stroke="white" stroke-width="1.125" stroke-linecap="square"/>
<path d="M95.999 223.062V290.562" stroke="white" stroke-width="1.125" stroke-linecap="square"/>
<path d="M130.875 210.687V278.187" stroke="white" stroke-width="1.125" stroke-linecap="square"/>
<path d="M86.3184 236.578L139.176 217.339" stroke="white" stroke-width="1.125" stroke-linecap="square"/>
<path d="M43.5684 224.202L96.4261 204.964" stroke="white" stroke-width="1.125" stroke-linecap="square"/>
<path d="M86.3184 284.953L139.176 265.714" stroke="white" stroke-width="1.125" stroke-linecap="square"/>
<path fill-rule="evenodd" clip-rule="evenodd" d="M133.042 303.995L170.512 317.723L136.282 330.165L98.8124 316.437L133.042 303.995Z" fill="#FFE2AF"/>
<path fill-rule="evenodd" clip-rule="evenodd" d="M98.8115 316.437L136.468 330.144L136.499 358.062L98.8423 344.094L98.8115 316.437Z" fill="#FFEBD7"/>
<path fill-rule="evenodd" clip-rule="evenodd" d="M136.469 330.149L170.927 317.675L170.958 345.589L136.5 358.062L136.469 330.149Z" fill="#FFC186"/>
<path d="M91.3555 313.843L144.213 333.082" stroke="white" stroke-width="1.125" stroke-linecap="square"/>
<path d="M114.437 297.273L177.867 320.359" stroke="white" stroke-width="1.125" stroke-linecap="round" stroke-linejoin="round"/>
<path d="M91.3555 341.968L144.213 361.207" stroke="white" stroke-width="1.125" stroke-linecap="square"/>
<path d="M98.249 301.812V346.812" stroke="white" stroke-width="1.125" stroke-linecap="square"/>
<path d="M136.499 319.812V364.812" stroke="white" stroke-width="1.125" stroke-linecap="square"/>
<path d="M171.375 307.437V352.437" stroke="white" stroke-width="1.125" stroke-linecap="square"/>
<path d="M126.818 333.327L179.676 314.089" stroke="white" stroke-width="1.125" stroke-linecap="square"/>
<path d="M126.818 361.452L179.676 342.214" stroke="white" stroke-width="1.125" stroke-linecap="square"/>
<path d="M88.5684 319.827L141.426 300.589" stroke="white" stroke-width="1.125" stroke-linecap="square"/>
</g>
<defs>
<clipPath id="clip0_205_5191">
<rect width="273.375" height="214.875" fill="white" transform="translate(-12 196.625)"/>
</clipPath>
</defs>
</svg>
