<svg width="495" height="430" viewBox="0 0 495 430" fill="none" xmlns="http://www.w3.org/2000/svg">
<g clip-path="url(#clip0_238_32953)">
<path d="M493.803 233.88L491.506 305.031L467.035 316.162L257.096 177.326L254.839 102.936L280.022 95.9426L483.026 214.392C489.924 218.417 494.061 225.898 493.803 233.88Z" fill="url(#paint0_linear_238_32953)"/>
<path d="M254.839 102.936L280.022 95.9426L483.026 214.392C489.924 218.417 494.061 225.898 493.803 233.88L491.506 305.031L467.035 316.162M254.839 102.936L455.967 226.969C462.321 230.887 466.222 237.791 466.299 245.256L467.035 316.162M254.839 102.936L257.096 177.326L467.035 316.162" stroke="white" stroke-width="0.75"/>
<path d="M460.455 225.158L254.675 102.626V179.803L467.302 314.947L469.24 241.096C469.411 234.585 466.051 228.49 460.455 225.158Z" fill="url(#paint1_linear_238_32953)" stroke="white" stroke-width="0.75"/>
<path d="M251.953 144.323L466.129 281.937L238.462 368.775L44.418 207.33L251.953 144.323Z" fill="#B9D5FF"/>
<path d="M467.393 316.031L239.319 405.166V369.056L468.122 281.275L467.393 316.031Z" fill="#DAE8FF" stroke="white" stroke-width="0.75"/>
<path d="M178.5 163.8L395.23 306.068V309.408L322.648 337.523L119.419 185.279V182.644L178.5 163.8Z" fill="#4C7CFF"/>
<path d="M322.559 333.735L394.95 306.014V309.501L322.559 337.453V333.735ZM322.559 333.735L119.854 183.017" stroke="white" stroke-width="0.75"/>
<rect x="44.0254" y="41.1555" width="10.1799" height="205.122" transform="rotate(-1.97603 44.0254 41.1555)" fill="#FFA386" stroke="white" stroke-width="0.75"/>
<path d="M54.2048 40.9654C54.2214 41.4458 53.813 42.0097 52.8712 42.4938C51.9582 42.9632 50.6594 43.289 49.1937 43.3396C47.7281 43.3901 46.4099 43.1546 45.4667 42.7493C44.4938 42.3313 44.0475 41.7969 44.0309 41.3164C44.0144 40.8359 44.4227 40.2721 45.3645 39.7879C46.2776 39.3186 47.5764 38.9928 49.042 38.9422C50.5076 38.8916 51.8259 39.1272 52.7691 39.5325C53.742 39.9505 54.1883 40.4849 54.2048 40.9654Z" fill="#FFA386" stroke="white" stroke-width="0.75"/>
<mask id="path-10-inside-1_238_32953" fill="white">
<path fill-rule="evenodd" clip-rule="evenodd" d="M269.544 2.75317L258.62 2.39894L253.541 159.029C253.516 159.123 253.501 159.22 253.498 159.317C253.451 160.739 255.87 161.971 258.899 162.069C261.928 162.167 264.421 161.095 264.467 159.673C264.469 159.618 264.467 159.564 264.461 159.509L269.544 2.75317Z"/>
</mask>
<path fill-rule="evenodd" clip-rule="evenodd" d="M269.544 2.75317L258.62 2.39894L253.541 159.029C253.516 159.123 253.501 159.22 253.498 159.317C253.451 160.739 255.87 161.971 258.899 162.069C261.928 162.167 264.421 161.095 264.467 159.673C264.469 159.618 264.467 159.564 264.461 159.509L269.544 2.75317Z" fill="#FFA386"/>
<path d="M258.62 2.39894L258.645 1.64933L257.895 1.62503L257.871 2.37463L258.62 2.39894ZM269.544 2.75317L270.294 2.77748L270.318 2.02787L269.569 2.00357L269.544 2.75317ZM253.541 159.029L254.265 159.227L254.288 159.141L254.291 159.053L253.541 159.029ZM264.461 159.509L263.712 159.485L263.71 159.535L263.715 159.584L264.461 159.509ZM258.596 3.14855L269.52 3.50278L269.569 2.00357L258.645 1.64933L258.596 3.14855ZM254.291 159.053L259.37 2.42325L257.871 2.37463L252.792 159.005L254.291 159.053ZM254.247 159.342C254.248 159.304 254.254 159.266 254.265 159.227L252.818 158.831C252.777 158.981 252.753 159.135 252.748 159.293L254.247 159.342ZM258.923 161.319C257.493 161.273 256.244 160.959 255.385 160.521C254.468 160.054 254.239 159.59 254.247 159.342L252.748 159.293C252.71 160.466 253.667 161.329 254.705 161.858C255.8 162.416 257.275 162.767 258.875 162.819L258.923 161.319ZM263.717 159.649C263.709 159.898 263.451 160.345 262.505 160.752C261.62 161.133 260.353 161.366 258.923 161.319L258.875 162.819C260.474 162.87 261.968 162.616 263.098 162.13C264.167 161.67 265.179 160.87 265.217 159.697L263.717 159.649ZM263.715 159.584C263.717 159.606 263.718 159.627 263.717 159.649L265.217 159.697C265.219 159.609 265.216 159.521 265.208 159.434L263.715 159.584ZM268.795 2.72887L263.712 159.485L265.211 159.534L270.294 2.77748L268.795 2.72887Z" fill="white" mask="url(#path-10-inside-1_238_32953)"/>
<path d="M269.137 3.27144C269.121 3.75193 268.676 4.28726 267.704 4.70733C266.762 5.11458 265.444 5.35285 263.978 5.30532C262.513 5.25779 261.213 4.93465 260.299 4.46721C259.356 3.98504 258.947 3.42201 258.962 2.94151C258.978 2.46102 259.423 1.9257 260.395 1.50562C261.337 1.09838 262.655 0.860104 264.121 0.907632C265.587 0.95516 266.886 1.2783 267.8 1.74574C268.743 2.22791 269.152 2.79095 269.137 3.27144Z" fill="#FFA386" stroke="white" stroke-width="0.75"/>
<path d="M263.709 114.952L451.825 226.773L233.501 307.522L51.8193 168.41L263.709 114.952Z" fill="#FFCCAF" fill-opacity="0.3" stroke="#FFA386" stroke-width="4.5"/>
<path d="M96.5068 158.166L277.879 290.31" stroke="#FFA386" stroke-width="2.25"/>
<path d="M140.538 147.175L326.096 273.364" stroke="#FFA386" stroke-width="2.25"/>
<path d="M179.987 136.558L368.794 257.572" stroke="#FFA386" stroke-width="2.25"/>
<path d="M221.461 126.547L412.997 240.536" stroke="#FFA386" stroke-width="2.25"/>
<path d="M263.749 68.1992L453.444 169.286L233.474 246.837L54.0273 115.607L263.749 68.1992Z" fill="#FFCCAF" fill-opacity="0.3" stroke="#FFA386" stroke-width="4.5"/>
<path d="M97.2344 104.209L278.608 231.314" stroke="#FFA386" stroke-width="2.25"/>
<path d="M136.923 95.479L323.729 215.218" stroke="#FFA386" stroke-width="2.25"/>
<path d="M185.046 86.4614L365.947 200.442" stroke="#FFA386" stroke-width="2.25"/>
<path d="M224.765 78.7871L404.023 185.695" stroke="#FFA386" stroke-width="2.25"/>
<path d="M262.903 18.7937L454.097 116.419L233.481 186.415L56.3535 59.2535L262.903 18.7937Z" fill="#FFCCAF" fill-opacity="0.3" stroke="#FFA386" stroke-width="4.5"/>
<path d="M92.5732 51.4465L274.113 173.327" stroke="#FFA386" stroke-width="2.25"/>
<path d="M132.262 42.7161L317.365 160.17" stroke="#FFA386" stroke-width="2.25"/>
<path d="M180.385 33.6985L359.845 146.591" stroke="#FFA386" stroke-width="2.25"/>
<path d="M220.104 26.0242L406.717 131.55" stroke="#FFA386" stroke-width="2.25"/>
<rect x="226.226" y="164.022" width="10.1799" height="205.122" transform="rotate(-0.0704482 226.226 164.022)" fill="#FFA386" stroke="white" stroke-width="0.75"/>
<path d="M236.406 164.17C236.406 164.651 235.979 165.201 235.022 165.653C234.094 166.092 232.785 166.374 231.318 166.376C229.852 166.378 228.542 166.099 227.613 165.662C226.655 165.212 226.226 164.663 226.226 164.182C226.225 163.702 226.652 163.152 227.609 162.699C228.538 162.26 229.847 161.978 231.313 161.976C232.78 161.974 234.089 162.254 235.018 162.69C235.977 163.14 236.405 163.689 236.406 164.17Z" fill="#FFA386" stroke="white" stroke-width="0.75"/>
<mask id="path-30-inside-2_238_32953" fill="white">
<path fill-rule="evenodd" clip-rule="evenodd" d="M461.49 92.4576L450.565 92.1033L444.533 278.148L444.533 278.148C444.522 278.208 444.515 278.27 444.513 278.332C444.467 279.753 446.885 280.985 449.914 281.083C452.943 281.181 455.436 280.109 455.482 278.687C455.485 278.594 455.478 278.501 455.46 278.409L461.49 92.4576Z"/>
</mask>
<path fill-rule="evenodd" clip-rule="evenodd" d="M461.49 92.4576L450.565 92.1033L444.533 278.148L444.533 278.148C444.522 278.208 444.515 278.27 444.513 278.332C444.467 279.753 446.885 280.985 449.914 281.083C452.943 281.181 455.436 280.109 455.482 278.687C455.485 278.594 455.478 278.501 455.46 278.409L461.49 92.4576Z" fill="#FFA386"/>
<path d="M450.565 92.1033L450.59 91.3537L449.84 91.3294L449.816 92.079L450.565 92.1033ZM461.49 92.4576L462.239 92.4819L462.264 91.7323L461.514 91.708L461.49 92.4576ZM444.533 278.148L443.783 278.123L443.759 278.873L444.508 278.897L444.533 278.148ZM444.533 278.148L445.27 278.284L445.428 277.426L444.557 277.398L444.533 278.148ZM455.46 278.409L454.71 278.384L454.708 278.469L454.724 278.552L455.46 278.409ZM450.541 92.853L461.465 93.2072L461.514 91.708L450.59 91.3537L450.541 92.853ZM445.282 278.172L451.315 92.1277L449.816 92.079L443.783 278.123L445.282 278.172ZM444.557 277.398L444.557 277.398L444.508 278.897L444.509 278.897L444.557 277.398ZM445.263 278.356C445.263 278.332 445.266 278.308 445.27 278.284L443.795 278.012C443.777 278.109 443.767 278.208 443.763 278.307L445.263 278.356ZM449.939 280.334C448.509 280.287 447.26 279.973 446.401 279.535C445.483 279.068 445.255 278.605 445.263 278.356L443.763 278.307C443.725 279.48 444.683 280.344 445.72 280.872C446.816 281.43 448.291 281.781 449.89 281.833L449.939 280.334ZM454.733 278.663C454.725 278.912 454.467 279.359 453.521 279.766C452.635 280.147 451.368 280.38 449.939 280.334L449.89 281.833C451.489 281.885 452.984 281.63 454.113 281.144C455.183 280.684 456.194 279.884 456.232 278.712L454.733 278.663ZM454.724 278.552C454.731 278.59 454.734 278.627 454.733 278.663L456.232 278.712C456.237 278.56 456.224 278.411 456.196 278.265L454.724 278.552ZM460.74 92.4333L454.71 278.384L456.209 278.433L462.239 92.4819L460.74 92.4333Z" fill="white" mask="url(#path-30-inside-2_238_32953)"/>
<path d="M461.098 92.9812C461.082 93.4616 460.637 93.997 459.665 94.417C458.723 94.8243 457.405 95.0626 455.939 95.015C454.473 94.9675 453.174 94.6444 452.26 94.1769C451.317 93.6948 450.908 93.1317 450.923 92.6512C450.939 92.1707 451.384 91.6354 452.356 91.2153C453.298 90.8081 454.616 90.5698 456.082 90.6173C457.547 90.6649 458.847 90.988 459.761 91.4555C460.704 91.9376 461.113 92.5007 461.098 92.9812Z" fill="#FFA386" stroke="white" stroke-width="0.75"/>
<path d="M30.2118 160.621L7.44434 167.934L14.5932 245.673L213.92 415.197L239.223 405.317V330.65C239.223 318.718 233.654 307.469 224.166 300.234L44.2369 163.033C40.2378 159.983 35 159.082 30.2118 160.621Z" fill="url(#paint2_linear_238_32953)" stroke="white" stroke-width="0.75"/>
<path d="M213.198 415.765L9.04465 244.097L4.01853 173.051C3.6976 168.514 8.90369 165.743 12.4875 168.543L197.865 313.364C206.398 320.03 211.478 330.183 211.695 341.01L213.198 415.765Z" fill="url(#paint3_linear_238_32953)" stroke="white" stroke-width="0.75"/>
</g>
<defs>
<linearGradient id="paint0_linear_238_32953" x1="282.501" y1="152.78" x2="344.213" y2="324.62" gradientUnits="userSpaceOnUse">
<stop stop-color="#8DB9FF"/>
<stop offset="0.708876" stop-color="#8EBAFF"/>
<stop offset="0.802694" stop-color="#E8F0FE"/>
</linearGradient>
<linearGradient id="paint1_linear_238_32953" x1="233.39" y1="173.506" x2="603.858" y2="131.595" gradientUnits="userSpaceOnUse">
<stop stop-color="#4473FF"/>
<stop offset="1" stop-color="#71A7FF"/>
</linearGradient>
<linearGradient id="paint2_linear_238_32953" x1="34.2276" y1="224.504" x2="116.781" y2="415.197" gradientUnits="userSpaceOnUse">
<stop stop-color="#8DB9FF"/>
<stop offset="0.708876" stop-color="#8EBAFF"/>
<stop offset="0.802694" stop-color="#E8F0FE"/>
</linearGradient>
<linearGradient id="paint3_linear_238_32953" x1="-17.621" y1="246.233" x2="346.059" y2="212.679" gradientUnits="userSpaceOnUse">
<stop stop-color="#4473FF"/>
<stop offset="1" stop-color="#71A7FF"/>
</linearGradient>
<clipPath id="clip0_238_32953">
<rect width="494" height="430" fill="white" transform="translate(0.333008)"/>
</clipPath>
</defs>
</svg>
