<svg width="241" height="319" viewBox="0 0 241 319" fill="none" xmlns="http://www.w3.org/2000/svg">
<g id="&#231;&#169;&#186;&#231;&#138;&#182;&#230;&#128;&#129;&#230;&#143;&#146;&#231;&#148;&#187;&#239;&#188;&#136;&#231;&#153;&#189;&#232;&#131;&#140;&#230;&#153;&#175;&#239;&#188;&#137;">
<g id="&#231;&#169;&#186;&#230;&#168;&#161;&#231;&#137;&#136;">
<g id="&#230;&#168;&#161;&#231;&#137;&#136;">
<path id="&#229;&#189;&#162;&#231;&#138;&#182;&#231;&#187;&#147;&#229;&#144;&#136;" opacity="0.502162" fill-rule="evenodd" clip-rule="evenodd" d="M120.564 190.776C117.893 190.776 115.349 190.251 112.933 189.072L20.2173 147.003C13.731 144.12 9.66124 137.829 9.53405 130.752C9.40687 123.675 13.3495 117.385 19.7086 114.37L112.424 69.1562C117.511 66.6662 123.616 66.6662 128.703 69.1562L221.291 114.37C227.65 117.516 231.593 123.806 231.466 130.752C231.339 137.829 227.269 143.989 220.783 147.003L128.322 189.072C125.905 190.251 123.234 190.776 120.564 190.776Z" fill="url(#paint0_linear_1471_150196)"/>
<g id="&#232;&#183;&#175;&#229;&#190;&#132;" opacity="0.50179" filter="url(#filter0_d_1471_150196)">
<path d="M113.06 285.398L23.397 245.426C18.9457 243.46 16.7836 238.087 18.8185 233.369C20.7262 228.782 25.9406 226.554 30.5192 228.651L120.437 268.754L206.157 228.782C210.608 226.685 215.823 228.782 217.858 233.369C219.893 237.956 217.858 243.329 213.406 245.426L127.813 285.529C125.651 286.709 123.235 287.233 120.691 287.233C118.147 287.233 115.476 286.578 113.06 285.398Z" fill="url(#paint1_linear_1471_150196)"/>
</g>
<path id="&#232;&#183;&#175;&#229;&#190;&#132;_2" opacity="0.5" d="M120.564 218.167L31.2823 178.195V197.067C31.2823 200.605 33.3172 203.751 36.4967 205.061L111.407 238.087C114.332 239.529 117.511 240.315 120.691 240.315C123.87 240.315 127.05 239.529 129.975 238.087L205.012 204.93C208.192 203.489 210.227 200.343 210.227 196.936L209.845 178.195L120.564 218.167Z" fill="url(#paint2_linear_1471_150196)"/>
</g>
<path id="&#231;&#159;&#169;&#229;&#189;&#162;" fill-rule="evenodd" clip-rule="evenodd" d="M44.304 30.0225C44.304 30.0225 93.2896 0 122.555 0C151.821 0 199.638 30.0225 199.638 30.0225L146.314 129.68C146.314 129.68 134.331 134.313 122.547 134.422C110.762 134.53 97.501 129.68 97.501 129.68L44.304 30.0225Z" fill="url(#paint3_linear_1471_150196)"/>
<ellipse id="&#230;&#164;&#173;&#229;&#156;&#134;&#229;&#189;&#162;" cx="121.971" cy="129.786" rx="24.3434" ry="6.95284" fill="#1D3981"/>
<path id="&#231;&#169;&#186;" fill-rule="evenodd" clip-rule="evenodd" d="M142.029 89.9442L143.996 80.9438H125.718C125.099 79.5562 124.045 77.8311 123.219 76.4811L114.864 78.0562C115.388 78.9187 115.964 79.9687 116.476 80.9438H97.6273L99.7328 90.5818H105.917C104.046 91.2193 102.179 91.7443 100.356 92.1568L105.001 97.1821C105.441 97.0277 105.893 96.8474 106.353 96.6641C106.676 96.5356 107.002 96.4057 107.33 96.282L107.909 100.182H117.262L117.513 106.333H103.608L104.655 111.245H137.079L138.133 106.333H123.675L123.894 100.182H133.969L134.628 95.832C134.751 95.8977 134.872 95.961 134.99 96.0225C135.343 96.2071 135.665 96.3758 135.937 96.5446L141.306 92.1943C139.948 91.5568 137.938 90.7693 135.804 89.9442H142.029ZM126.678 86.7569L122.064 90.5446C125.586 91.8947 130.327 93.8073 133.581 95.3449H109.526C112.948 93.8823 116.608 92.1197 119.51 90.2821L114.564 86.907C112.086 88.257 109.274 89.4196 106.457 90.3946L105.783 85.8569H135.446L134.904 89.6071C132.376 88.6714 129.68 87.7655 127.467 87.0221C127.196 86.9312 126.933 86.8427 126.678 86.7569Z" fill="white"/>
<path id="&#229;&#189;&#162;&#231;&#138;&#182;&#231;&#187;&#147;&#229;&#144;&#136;_2" opacity="0.102004" fill-rule="evenodd" clip-rule="evenodd" d="M122.555 0C93.2896 0 44.304 30.0225 44.304 30.0225L97.501 129.68C97.501 129.68 97.5374 129.769 97.6321 129.925C97.8243 132.733 103.843 135.132 112.377 136.179C114.94 136.511 117.934 136.718 121.429 136.738C121.609 136.739 121.79 136.739 121.971 136.739C122.152 136.739 122.332 136.739 122.512 136.738C125.932 136.719 128.868 136.52 131.389 136.2C140.157 135.148 146.314 132.673 146.314 129.786C146.314 129.753 146.313 129.72 146.312 129.687C146.313 129.683 146.314 129.68 146.314 129.68L199.638 30.0225C199.638 30.0225 151.821 0 122.555 0Z" fill="url(#paint4_linear_1471_150196)"/>
</g>
<g id="&#229;&#138;&#160;">
<g id="&#232;&#183;&#175;&#229;&#190;&#132;_3" filter="url(#filter1_d_1471_150196)">
<path fill-rule="evenodd" clip-rule="evenodd" d="M41.9853 294.319C26.6202 293.75 14.1643 285.716 14.1643 276.375C14.1643 267.034 26.6202 259.001 41.9853 258.432C57.3504 257.863 69.8063 265.897 69.8063 276.375C69.8063 286.854 57.3504 294.888 41.9853 294.319Z" fill="url(#paint5_linear_1471_150196)"/>
</g>
<path id="&#229;&#189;&#162;&#231;&#138;&#182;&#231;&#187;&#147;&#229;&#144;&#136;_3" fill-rule="evenodd" clip-rule="evenodd" d="M41.9853 288.525C26.6202 287.956 14.1643 279.922 14.1643 270.581C14.1643 261.24 26.6202 253.207 41.9853 252.638C57.3504 252.069 69.8063 260.102 69.8063 270.581C69.8063 281.06 57.3504 289.093 41.9853 288.525ZM39.2037 268.797L30.8574 268.828C29.3209 268.834 28.0753 269.619 28.0753 270.581C28.0753 271.544 29.3209 272.329 30.8574 272.335L39.2037 272.365V277.718C39.2037 278.703 40.4493 279.525 41.9858 279.553C43.5223 279.582 44.7679 278.797 44.7679 277.8V272.386L53.1142 272.417C54.6507 272.423 55.8963 271.601 55.8963 270.581C55.8963 269.562 54.6507 268.74 53.1142 268.746L44.7679 268.777V263.363C44.7679 262.366 43.5223 261.581 41.9858 261.61C40.4493 261.638 39.2037 262.46 39.2037 263.445V268.797Z" fill="url(#paint6_linear_1471_150196)"/>
</g>
<g id="&#229;&#164;&#180;">
<ellipse id="&#230;&#164;&#173;&#229;&#156;&#134;&#229;&#189;&#162;_2" cx="9.9138" cy="13.4763" rx="9.9138" ry="13.4763" transform="matrix(0.939731 0.341916 -0.342125 0.939655 192.57 127.314)" fill="#F1DBCC"/>
<ellipse id="&#230;&#164;&#173;&#229;&#156;&#134;&#229;&#189;&#162;&#229;&#164;&#135;&#228;&#187;&#189;" cx="11.5916" cy="12.7474" rx="11.5916" ry="12.7474" transform="matrix(0.939731 0.341916 -0.342125 0.939655 195.424 124.274)" fill="#031B32"/>
</g>
<g id="&#232;&#133;&#191;">
<g id="&#230;&#164;&#173;&#229;&#156;&#134;&#229;&#189;&#162;_3" filter="url(#filter2_d_1471_150196)">
<ellipse cx="173.414" cy="301.828" rx="9.91228" ry="5.20724" fill="#031B32"/>
</g>
<g id="&#230;&#164;&#173;&#229;&#156;&#134;&#229;&#189;&#162;&#229;&#164;&#135;&#228;&#187;&#189; 2" filter="url(#filter3_d_1471_150196)">
<ellipse cx="200.008" cy="298.917" rx="7.3911" ry="4.58002" fill="#031B32"/>
</g>
<path id="&#231;&#159;&#169;&#229;&#189;&#162;&#229;&#164;&#135;&#228;&#187;&#189; 2" fill-rule="evenodd" clip-rule="evenodd" d="M189.858 223.077L213.042 217.856C213.042 217.856 206.699 240.031 204.583 259.448C202.467 278.864 206.696 288.003 206.737 296.655C206.754 300.246 205.722 301.729 203.466 301.966C201.209 302.203 199.119 300.242 198.326 297.536C196.205 290.302 189.858 273.794 189.858 257.364C189.858 240.934 189.858 223.077 189.858 223.077Z" fill="url(#paint7_linear_1471_150196)"/>
<path id="&#231;&#159;&#169;&#229;&#189;&#162;_2" fill-rule="evenodd" clip-rule="evenodd" d="M167.18 220.829L196.16 219.01C196.16 219.01 187.35 236.042 184.202 257.205C181.053 278.368 182.378 287.537 182.378 299.154C182.378 302.459 182.203 304.762 178.748 304.762C175.293 304.762 173.69 303.942 171.961 299.154C169.185 291.47 165.382 270.939 165.382 254.18C165.382 237.421 167.18 220.829 167.18 220.829Z" fill="url(#paint8_linear_1471_150196)"/>
</g>
<g id="&#228;&#184;&#138;&#232;&#186;&#171;">
<ellipse id="&#230;&#164;&#173;&#229;&#156;&#134;&#229;&#189;&#162;_4" cx="4.51619" cy="3.47656" rx="4.51619" ry="3.47656" transform="matrix(0.939731 0.341916 -0.342125 0.939655 133.687 144.676)" fill="#F1DBCC"/>
<ellipse id="&#230;&#164;&#173;&#229;&#156;&#134;&#229;&#189;&#162;&#229;&#164;&#135;&#228;&#187;&#189; 3" cx="3.4767" cy="2.31823" rx="3.4767" ry="2.31823" transform="matrix(-0.484938 0.874549 0.874691 0.484681 165.679 137.211)" fill="#F1DBCC"/>
<path id="&#231;&#159;&#169;&#229;&#189;&#162;&#229;&#164;&#135;&#228;&#187;&#189; 4" fill-rule="evenodd" clip-rule="evenodd" d="M163.787 145.675C163.787 142.314 168.316 141.375 169.716 144.562C171.115 147.75 180.199 164.551 186.702 164.551C193.205 164.551 202.922 173.279 202.922 173.279C202.922 173.279 185.994 182.098 176.419 176.961C166.844 171.823 163.787 149.036 163.787 145.675Z" fill="url(#paint9_linear_1471_150196)"/>
<path id="&#232;&#183;&#175;&#229;&#190;&#132;_4" fill-rule="evenodd" clip-rule="evenodd" d="M169.734 191.343C165.026 191.466 155.455 190.721 150.801 186.661C140.768 177.909 138.251 155.217 137.698 151.864C137.145 148.511 140.123 146.142 142.175 149.486C144.227 152.83 155.431 172.325 159.101 172.325C161.174 172.325 168.895 165.08 176.419 159.916C179.923 157.288 184.373 155.28 192.682 155.28C205.122 155.28 215.207 165.362 215.207 177.798C215.207 178.089 215.201 178.381 215.19 178.672C214.003 209.221 214.228 220.737 211.229 222.491C205.694 225.728 168.412 228.158 164.861 222.491C163.283 219.973 166.02 200.695 169.734 191.343Z" fill="url(#paint10_linear_1471_150196)"/>
</g>
</g>
<defs>
<filter id="filter0_d_1471_150196" x="11.2379" y="223.601" width="214.222" height="72.9969" filterUnits="userSpaceOnUse" color-interpolation-filters="sRGB">
<feFlood flood-opacity="0" result="BackgroundImageFix"/>
<feColorMatrix in="SourceAlpha" type="matrix" values="0 0 0 0 0 0 0 0 0 0 0 0 0 0 0 0 0 0 127 0" result="hardAlpha"/>
<feOffset dy="2.5541"/>
<feGaussianBlur stdDeviation="3.40547"/>
<feColorMatrix type="matrix" values="0 0 0 0 0.0913424 0 0 0 0 0.384998 0 0 0 0 0.812896 0 0 0 1 0"/>
<feBlend mode="normal" in2="BackgroundImageFix" result="effect1_dropShadow_1471_150196"/>
<feBlend mode="normal" in="SourceGraphic" in2="effect1_dropShadow_1471_150196" result="shape"/>
</filter>
<filter id="filter1_d_1471_150196" x="8.20476" y="253.295" width="67.5611" height="47.8628" filterUnits="userSpaceOnUse" color-interpolation-filters="sRGB">
<feFlood flood-opacity="0" result="BackgroundImageFix"/>
<feColorMatrix in="SourceAlpha" type="matrix" values="0 0 0 0 0 0 0 0 0 0 0 0 0 0 0 0 0 0 127 0" result="hardAlpha"/>
<feOffset dy="0.851368"/>
<feGaussianBlur stdDeviation="2.97979"/>
<feColorMatrix type="matrix" values="0 0 0 0 0.0992554 0 0 0 0 0.397069 0 0 0 0 0.854903 0 0 0 1 0"/>
<feBlend mode="normal" in2="BackgroundImageFix" result="effect1_dropShadow_1471_150196"/>
<feBlend mode="normal" in="SourceGraphic" in2="effect1_dropShadow_1471_150196" result="shape"/>
</filter>
<filter id="filter2_d_1471_150196" x="160.097" y="294.067" width="26.6355" height="17.2255" filterUnits="userSpaceOnUse" color-interpolation-filters="sRGB">
<feFlood flood-opacity="0" result="BackgroundImageFix"/>
<feColorMatrix in="SourceAlpha" type="matrix" values="0 0 0 0 0 0 0 0 0 0 0 0 0 0 0 0 0 0 127 0" result="hardAlpha"/>
<feOffset dy="0.851368"/>
<feGaussianBlur stdDeviation="1.70274"/>
<feColorMatrix type="matrix" values="0 0 0 0 0.164706 0 0 0 0 0.419608 0 0 0 0 0.827451 0 0 0 1 0"/>
<feBlend mode="normal" in2="BackgroundImageFix" result="effect1_dropShadow_1471_150196"/>
<feBlend mode="normal" in="SourceGraphic" in2="effect1_dropShadow_1471_150196" result="shape"/>
</filter>
<filter id="filter3_d_1471_150196" x="189.211" y="291.783" width="21.5932" height="15.9711" filterUnits="userSpaceOnUse" color-interpolation-filters="sRGB">
<feFlood flood-opacity="0" result="BackgroundImageFix"/>
<feColorMatrix in="SourceAlpha" type="matrix" values="0 0 0 0 0 0 0 0 0 0 0 0 0 0 0 0 0 0 127 0" result="hardAlpha"/>
<feOffset dy="0.851368"/>
<feGaussianBlur stdDeviation="1.70274"/>
<feColorMatrix type="matrix" values="0 0 0 0 0.164706 0 0 0 0 0.419608 0 0 0 0 0.827451 0 0 0 1 0"/>
<feBlend mode="normal" in2="BackgroundImageFix" result="effect1_dropShadow_1471_150196"/>
<feBlend mode="normal" in="SourceGraphic" in2="effect1_dropShadow_1471_150196" result="shape"/>
</filter>
<linearGradient id="paint0_linear_1471_150196" x1="-10.2951" y1="112.741" x2="5.61045" y2="209.635" gradientUnits="userSpaceOnUse">
<stop stop-color="#8EBAFF"/>
<stop offset="1" stop-color="#5584FF"/>
</linearGradient>
<linearGradient id="paint1_linear_1471_150196" x1="0.12879" y1="249.712" x2="4.27509" y2="297.194" gradientUnits="userSpaceOnUse">
<stop stop-color="#8EBAFF"/>
<stop offset="1" stop-color="#5584FF"/>
</linearGradient>
<linearGradient id="paint2_linear_1471_150196" x1="15.2968" y1="201.06" x2="20.3702" y2="250.596" gradientUnits="userSpaceOnUse">
<stop stop-color="#8EBAFF"/>
<stop offset="1" stop-color="#5584FF"/>
</linearGradient>
<linearGradient id="paint3_linear_1471_150196" x1="56.136" y1="20.4786" x2="56.136" y2="134.424" gradientUnits="userSpaceOnUse">
<stop stop-color="#5584FF" stop-opacity="0.01"/>
<stop offset="0.413825" stop-color="#5584FF" stop-opacity="0.3"/>
<stop offset="1" stop-color="#5584FF"/>
</linearGradient>
<linearGradient id="paint4_linear_1471_150196" x1="44.304" y1="0" x2="44.304" y2="136.739" gradientUnits="userSpaceOnUse">
<stop stop-color="#8BB5F7" stop-opacity="0.01"/>
<stop offset="0.668493" stop-color="#7FA9F5" stop-opacity="0.053868"/>
<stop offset="1" stop-color="#537EED"/>
</linearGradient>
<linearGradient id="paint5_linear_1471_150196" x1="13.6789" y1="296.424" x2="58.5111" y2="307.639" gradientUnits="userSpaceOnUse">
<stop stop-color="#2765CF"/>
<stop offset="1" stop-color="#0E3395"/>
</linearGradient>
<linearGradient id="paint6_linear_1471_150196" x1="12.1916" y1="275.633" x2="41.2069" y2="307.442" gradientUnits="userSpaceOnUse">
<stop stop-color="#8EBAFF"/>
<stop offset="1" stop-color="#5584FF"/>
</linearGradient>
<linearGradient id="paint7_linear_1471_150196" x1="214.649" y1="266.047" x2="186.165" y2="259.334" gradientUnits="userSpaceOnUse">
<stop stop-color="#1F61C6"/>
<stop offset="1" stop-color="#0D3295"/>
</linearGradient>
<linearGradient id="paint8_linear_1471_150196" x1="169.262" y1="301.481" x2="184.985" y2="301.481" gradientUnits="userSpaceOnUse">
<stop stop-color="#2F75DA"/>
<stop offset="1" stop-color="#1540B3"/>
</linearGradient>
<linearGradient id="paint9_linear_1471_150196" x1="163.787" y1="142.604" x2="163.787" y2="178.852" gradientUnits="userSpaceOnUse">
<stop stop-color="#3D85E8"/>
<stop offset="1" stop-color="#1D4DCD"/>
</linearGradient>
<linearGradient id="paint10_linear_1471_150196" x1="137.631" y1="157.078" x2="156.14" y2="235.05" gradientUnits="userSpaceOnUse">
<stop stop-color="#8EBAFF"/>
<stop offset="1" stop-color="#5584FF"/>
</linearGradient>
</defs>
</svg>
