<svg width="450" height="450" viewBox="0 0 450 450" fill="none" xmlns="http://www.w3.org/2000/svg">
<g clip-path="url(#clip0_203_4987)">
<path fill-rule="evenodd" clip-rule="evenodd" d="M279.375 168.75L411 120.375V322.875L279.375 371.25V168.75Z" fill="#4473FF"/>
<path fill-rule="evenodd" clip-rule="evenodd" d="M67.875 91.1249L279.375 168.75V371.25L67.875 292.5V91.1249Z" fill="#DAE8FF"/>
<path fill-rule="evenodd" clip-rule="evenodd" d="M112.875 159.75L234.375 203.625V354.375L112.875 309.375V159.75Z" fill="#0035D3" stroke="#979797"/>
<path fill-rule="evenodd" clip-rule="evenodd" d="M112.875 159.75L234.375 203.625V265.5L112.875 309.375V159.75Z" fill="#527EFF"/>
<path fill-rule="evenodd" clip-rule="evenodd" d="M200.301 44.1115L411.731 121.066L279.7 168.513L68.2688 91.5588L200.301 44.1115Z" fill="#8DB9FF"/>
<path d="M8.86425 70.1434L326.011 185.575" stroke="white" stroke-linecap="square"/>
<path d="M8.86425 121.893L326.011 237.325" stroke="white" stroke-linecap="square"/>
<path d="M112.875 29.2499L112.875 378" stroke="white" stroke-linecap="square"/>
<path d="M67.875 13.5L67.875 362.25" stroke="white" stroke-linecap="square"/>
<path d="M234.375 74.2499L234.375 423" stroke="white" stroke-linecap="square"/>
<path d="M279.375 90V438.75" stroke="white" stroke-linecap="square"/>
<path d="M225.81 188.139L426.669 115.032" stroke="white" stroke-linecap="square"/>
<path d="M225.81 390.639L426.669 317.532" stroke="white" stroke-linecap="square"/>
<circle cx="140.127" cy="399.688" r="10.125" fill="#1E4EDE"/>
<circle cx="27.627" cy="358.063" r="10.125" fill="#1E4EDE"/>
<circle cx="235.752" cy="361.438" r="10.125" fill="#1E4EDE"/>
<circle cx="145.752" cy="401.938" r="10.125" fill="#00238C"/>
<circle cx="33.252" cy="360.313" r="10.125" fill="#00238C"/>
<circle cx="241.377" cy="362.563" r="10.125" fill="#00238C"/>
<path fill-rule="evenodd" clip-rule="evenodd" d="M127.873 299.044L258.001 346.5L142.879 388.331L12.7513 340.875L127.873 299.044Z" fill="#84B3FF"/>
<path fill-rule="evenodd" clip-rule="evenodd" d="M12.75 340.875L143.25 388.125V398.25L12.75 350.313V340.875Z" fill="#2478FF"/>
<path fill-rule="evenodd" clip-rule="evenodd" d="M143.25 388.298L258 346.5V356.452L143.25 398.25V388.298Z" fill="#0035D3"/>
<path d="M3.64746 337.501L162.221 395.217" stroke="white" stroke-linecap="square"/>
<path d="M121.196 396.578L269.198 342.709" stroke="white" stroke-linecap="square"/>
<path d="M121.196 406.703L269.198 352.834" stroke="white" stroke-linecap="square"/>
<path d="M-0.305661 345.953L178.955 280.707" stroke="white" stroke-linecap="square"/>
<path fill-rule="evenodd" clip-rule="evenodd" d="M121.011 214.923L220.049 250.97L151.879 275.831L52.8404 239.784L121.011 214.923Z" fill="#FFCCAF"/>
<path fill-rule="evenodd" clip-rule="evenodd" d="M53.25 239.625L152.25 275.788V371.25L53.25 334.563L53.25 239.625Z" fill="#FFE1D7"/>
<path fill-rule="evenodd" clip-rule="evenodd" d="M152.25 275.799L220.875 250.875V346.327L152.25 371.25V275.799Z" fill="#FFA386"/>
<path d="M16.9951 226.862L175.568 284.578" stroke="white" stroke-linecap="square"/>
<path d="M73.9365 197.398L232.51 255.114" stroke="white" stroke-linecap="square"/>
<path d="M89.6885 226.648L188.004 262.432" stroke="white" stroke-linecap="round" stroke-linejoin="round"/>
<path d="M16.9951 321.362L196.255 386.607" stroke="white" stroke-linecap="square"/>
<path d="M53.25 209.812L53.25 344.812" stroke="white" stroke-linecap="square"/>
<path d="M152.25 245.813V380.813" stroke="white" stroke-linecap="square"/>
<path d="M143.25 380.813V403.313" stroke="white" stroke-linecap="square"/>
<path d="M126.819 285.203L232.535 246.726" stroke="white" stroke-linecap="square"/>
<path fill-rule="evenodd" clip-rule="evenodd" d="M110.064 307.944C112.428 308.804 114.005 311.047 114.014 313.563L114.251 387.313L107.25 384.75L107.491 316.583C107.497 314.901 106.45 313.395 104.87 312.814L47.8448 291.869C47.1921 291.629 46.5 292.112 46.5 292.808V363.004L39.7521 360.476L39.7502 290.941C39.7501 286.778 43.8875 283.88 47.8007 285.303L110.064 307.944Z" fill="#0035D3"/>
<path fill-rule="evenodd" clip-rule="evenodd" d="M110.064 307.944C112.428 308.804 114.005 311.047 114.014 313.563L114.251 387.313L107.25 384.75L107.491 316.583C107.497 314.901 106.45 313.395 104.87 312.814L47.8448 291.869C47.1921 291.629 46.5 292.112 46.5 292.808V363.004L39.7521 360.476L39.7502 290.941C39.7501 286.778 43.8875 283.88 47.8007 285.303L110.064 307.944Z" fill="#0035D3"/>
<mask id="mask0_203_4987" style="mask-type:luminance" maskUnits="userSpaceOnUse" x="39" y="284" width="76" height="104">
<path fill-rule="evenodd" clip-rule="evenodd" d="M110.064 307.944C112.428 308.804 114.005 311.047 114.014 313.563L114.251 387.313L107.25 384.75L107.491 316.583C107.497 314.901 106.45 313.395 104.87 312.814L47.8448 291.869C47.1921 291.629 46.5 292.112 46.5 292.808V363.004L39.7521 360.476L39.7502 290.941C39.7501 286.778 43.8875 283.88 47.8007 285.303L110.064 307.944Z" fill="white"/>
</mask>
<g mask="url(#mask0_203_4987)">
<path fill-rule="evenodd" clip-rule="evenodd" d="M44.25 294.188C44.25 292.945 45.2574 291.938 46.5 291.938H47.216L47.0766 292.003C46.7248 292.167 46.5 292.52 46.5 292.909V362.25H44.25V294.188Z" fill="#00238C"/>
<path fill-rule="evenodd" clip-rule="evenodd" d="M45.9178 285.242C47.3877 285.242 48.2871 285.478 48.2871 285.478L109.838 307.86C109.838 307.86 110.409 308.096 111.158 308.575C111.907 309.054 113.4 309.647 113.4 309.647C113.4 309.647 110.902 311.003 110.474 310.596C110.047 310.189 109.514 309.878 109.514 309.878L45.6902 286.354C45.6902 286.354 44.1393 285.936 43.2522 286.354C42.365 286.772 41.7843 287.146 41.7843 287.146C41.7843 287.146 42.0794 286.632 42.2465 286.528C43.799 285.565 45.0331 285.242 45.9178 285.242Z" fill="#527EFF"/>
<path fill-rule="evenodd" clip-rule="evenodd" d="M111.749 313.053C111.749 313.053 111.559 312.202 111.262 311.656C110.965 311.111 110.473 310.596 110.473 310.596L113.556 309.686C113.556 309.686 111.92 309.037 112.874 310.37C113.828 311.703 113.999 313.875 113.999 313.875V387.303L111.749 386.4V313.053Z" fill="#00238C"/>
</g>
<path d="M3.64746 347.626L162.221 405.342" stroke="white" stroke-linecap="square"/>
<path d="M388.001 259.333C357.809 259.333 333.334 283.808 333.334 314C333.334 344.192 357.809 368.667 388.001 368.667C418.192 368.667 442.667 344.192 442.667 314C442.667 283.808 418.192 259.333 388.001 259.333Z" fill="white" stroke="white" stroke-width="6"/>
<path fill-rule="evenodd" clip-rule="evenodd" d="M336.334 314C336.334 285.465 359.466 262.333 388.001 262.333C416.535 262.333 439.667 285.465 439.667 314C439.667 342.535 416.535 365.667 388.001 365.667C359.466 365.667 336.334 342.535 336.334 314ZM382.834 334.224L416.196 300.862L408.889 293.555L382.834 319.61L368.404 305.18L361.097 312.487L382.834 334.224Z" fill="#00B42A"/>
</g>
<defs>
<clipPath id="clip0_203_4987">
<rect width="450" height="450" fill="white"/>
</clipPath>
</defs>
</svg>
