<svg width="101" height="137" viewBox="0 0 101 137" fill="none" xmlns="http://www.w3.org/2000/svg">
<path d="M95.9144 30.6151L95.9144 30.6136V10.1025V5.10254H90.9144H50.6205H10.3265H5.32655V10.1025V30.6136L5.32652 30.6149C5.3257 30.6603 5.32492 30.7185 5.32451 30.789C5.3237 30.9301 5.32437 31.1206 5.32918 31.3562C5.3388 31.8269 5.36503 32.4804 5.42956 33.2811C5.5582 34.8775 5.84134 37.088 6.46149 39.6202C7.69287 44.648 10.3229 51.2163 15.9846 56.6427L15.989 56.6469L29.3515 69.423L16.9428 81.2895L16.9396 81.2925L16.9333 81.2985L16.9326 81.2993L16.9157 81.3154L16.8711 81.3586C16.8366 81.3922 16.7927 81.4354 16.74 81.4882C16.6346 81.5936 16.4939 81.7372 16.3229 81.9181C15.9813 82.2795 15.5174 82.7914 14.9726 83.4464C13.8855 84.7535 12.4619 86.6477 11.0433 89.0698C8.21264 93.9029 5.32655 100.973 5.32655 109.717V126.788V131.788H10.3265H90.8924H95.8924V126.788V109.717C95.8924 100.973 93.0063 93.9029 90.1757 89.0698C88.7571 86.6477 87.3334 84.7535 86.2463 83.4464C85.7016 82.7914 85.2377 82.2795 84.896 81.9181C84.7251 81.7372 84.5844 81.5936 84.479 81.4882C84.4263 81.4354 84.3823 81.3922 84.3479 81.3586L84.3033 81.3154L84.2887 81.3014L84.2864 81.2993L84.2794 81.2925L84.2762 81.2895L71.8889 69.4235L85.252 56.6469C90.918 51.2294 93.5485 44.6577 94.7796 39.6277C95.3997 37.0941 95.6828 34.8815 95.8114 33.2837C95.8759 32.4822 95.9021 31.8281 95.9118 31.3569C95.9166 31.1211 95.9172 30.9305 95.9164 30.7893C95.916 30.7188 95.9152 30.6605 95.9144 30.6151Z" fill="white" stroke="white" stroke-width="10"/>
</svg>
