<svg width="438" height="450" viewBox="0 0 438 450" fill="none" xmlns="http://www.w3.org/2000/svg">
<path fill-rule="evenodd" clip-rule="evenodd" d="M279.375 168.75L411 120.375V322.875L279.375 371.25V168.75Z" fill="#4473FF"/>
<path fill-rule="evenodd" clip-rule="evenodd" d="M67.875 91.1249L279.375 168.75V371.25L67.875 292.5V91.1249Z" fill="#DAE8FF"/>
<path fill-rule="evenodd" clip-rule="evenodd" d="M112.875 159.75L234.375 203.625V354.375L112.875 309.375V159.75Z" fill="#0035D3" stroke="#979797"/>
<path fill-rule="evenodd" clip-rule="evenodd" d="M112.875 159.75L234.375 203.625V265.5L112.875 309.375V159.75Z" fill="#527EFF"/>
<path fill-rule="evenodd" clip-rule="evenodd" d="M200.301 44.1115L411.731 121.066L279.7 168.513L68.2688 91.5588L200.301 44.1115Z" fill="#8DB9FF"/>
<path d="M8.86425 70.1434L326.011 185.575" stroke="white" stroke-linecap="square"/>
<path d="M8.86425 121.893L326.011 237.325" stroke="white" stroke-linecap="square"/>
<path d="M112.875 29.2499L112.875 378" stroke="white" stroke-linecap="square"/>
<path d="M67.875 13.5L67.875 362.25" stroke="white" stroke-linecap="square"/>
<path d="M234.375 74.2499L234.375 423" stroke="white" stroke-linecap="square"/>
<path d="M279.375 90V438.75" stroke="white" stroke-linecap="square"/>
<path d="M225.81 188.139L426.669 115.032" stroke="white" stroke-linecap="square"/>
<path d="M225.81 390.639L426.669 317.532" stroke="white" stroke-linecap="square"/>
<circle cx="140.127" cy="399.688" r="10.125" fill="#1E4EDE"/>
<circle cx="27.627" cy="358.063" r="10.125" fill="#1E4EDE"/>
<circle cx="235.752" cy="361.438" r="10.125" fill="#1E4EDE"/>
<circle cx="145.752" cy="401.938" r="10.125" fill="#00238C"/>
<circle cx="33.252" cy="360.313" r="10.125" fill="#00238C"/>
<circle cx="241.377" cy="362.563" r="10.125" fill="#00238C"/>
<path fill-rule="evenodd" clip-rule="evenodd" d="M127.873 299.044L258.001 346.5L142.879 388.331L12.7513 340.875L127.873 299.044Z" fill="#84B3FF"/>
<path fill-rule="evenodd" clip-rule="evenodd" d="M12.751 340.875L143.251 388.125V398.25L12.751 350.313V340.875Z" fill="#2478FF"/>
<path fill-rule="evenodd" clip-rule="evenodd" d="M143.25 388.298L258 346.5V356.452L143.25 398.25V388.298Z" fill="#0035D3"/>
<path d="M3.64843 337.501L162.222 395.217" stroke="white" stroke-linecap="square"/>
<path d="M121.195 396.578L269.197 342.709" stroke="white" stroke-linecap="square"/>
<path d="M121.195 406.703L269.197 352.834" stroke="white" stroke-linecap="square"/>
<path d="M-0.305661 345.953L178.955 280.707" stroke="white" stroke-linecap="square"/>
<path fill-rule="evenodd" clip-rule="evenodd" d="M121.011 214.923L220.049 250.97L151.879 275.831L52.8404 239.784L121.011 214.923Z" fill="#FFCCAF"/>
<path fill-rule="evenodd" clip-rule="evenodd" d="M53.251 239.625L152.251 275.788V371.25L53.251 334.563L53.251 239.625Z" fill="#FFE1D7"/>
<path fill-rule="evenodd" clip-rule="evenodd" d="M152.25 275.799L220.875 250.875V346.327L152.25 371.25V275.799Z" fill="#FFA386"/>
<path d="M16.9961 226.862L175.569 284.578" stroke="white" stroke-linecap="square"/>
<path d="M73.9385 197.398L232.512 255.114" stroke="white" stroke-linecap="square"/>
<path d="M89.6894 226.648L188.005 262.432" stroke="white" stroke-linecap="round" stroke-linejoin="round"/>
<path d="M16.9961 321.362L196.256 386.607" stroke="white" stroke-linecap="square"/>
<path d="M53.251 209.812L53.251 344.812" stroke="white" stroke-linecap="square"/>
<path d="M152.25 245.813V380.813" stroke="white" stroke-linecap="square"/>
<path d="M143.25 380.813V403.313" stroke="white" stroke-linecap="square"/>
<path d="M126.819 285.203L232.535 246.726" stroke="white" stroke-linecap="square"/>
<path fill-rule="evenodd" clip-rule="evenodd" d="M110.065 307.944C112.429 308.804 114.006 311.047 114.014 313.563L114.252 387.313L107.251 384.75L107.492 316.583C107.498 314.901 106.451 313.395 104.871 312.814L47.8458 291.869C47.1931 291.629 46.501 292.112 46.501 292.808V363.004L39.7531 360.476L39.7512 290.941C39.7511 286.778 43.8885 283.88 47.8017 285.303L110.065 307.944Z" fill="#0035D3"/>
<path fill-rule="evenodd" clip-rule="evenodd" d="M110.065 307.944C112.429 308.804 114.006 311.047 114.014 313.563L114.252 387.313L107.251 384.75L107.492 316.583C107.498 314.901 106.451 313.395 104.871 312.814L47.8458 291.869C47.1931 291.629 46.501 292.112 46.501 292.808V363.004L39.7531 360.476L39.7512 290.941C39.7511 286.778 43.8885 283.88 47.8017 285.303L110.065 307.944Z" fill="#0035D3"/>
<mask id="mask0_203_4928" style="mask-type:luminance" maskUnits="userSpaceOnUse" x="39" y="284" width="76" height="104">
<path fill-rule="evenodd" clip-rule="evenodd" d="M110.065 307.944C112.429 308.804 114.006 311.047 114.014 313.563L114.252 387.313L107.251 384.75L107.492 316.583C107.498 314.901 106.451 313.395 104.871 312.814L47.8458 291.869C47.1931 291.629 46.501 292.112 46.501 292.808V363.004L39.7531 360.476L39.7512 290.941C39.7511 286.778 43.8885 283.88 47.8017 285.303L110.065 307.944Z" fill="white"/>
</mask>
<g mask="url(#mask0_203_4928)">
<path fill-rule="evenodd" clip-rule="evenodd" d="M44.251 294.188C44.251 292.945 45.2583 291.938 46.501 291.938H47.217L47.0776 292.003C46.7258 292.167 46.501 292.52 46.501 292.909V362.25H44.251V294.188Z" fill="#00238C"/>
<path fill-rule="evenodd" clip-rule="evenodd" d="M45.9188 285.242C47.3886 285.242 48.288 285.478 48.288 285.478L109.839 307.86C109.839 307.86 110.41 308.096 111.159 308.575C111.908 309.054 113.401 309.647 113.401 309.647C113.401 309.647 110.903 311.003 110.475 310.596C110.048 310.189 109.515 309.878 109.515 309.878L45.6912 286.354C45.6912 286.354 44.1403 285.936 43.2531 286.354C42.366 286.772 41.7852 287.146 41.7852 287.146C41.7852 287.146 42.0804 286.632 42.2475 286.528C43.8 285.565 45.034 285.242 45.9188 285.242Z" fill="#527EFF"/>
<path fill-rule="evenodd" clip-rule="evenodd" d="M111.751 313.053C111.751 313.053 111.561 312.202 111.264 311.656C110.967 311.111 110.475 310.596 110.475 310.596L113.558 309.686C113.558 309.686 111.922 309.037 112.876 310.37C113.83 311.703 114.001 313.875 114.001 313.875V387.303L111.751 386.4V313.053Z" fill="#00238C"/>
</g>
<path d="M3.64843 347.626L162.222 405.342" stroke="white" stroke-linecap="square"/>
</svg>
