<svg width="28" height="28" viewBox="0 0 28 28" fill="none" xmlns="http://www.w3.org/2000/svg">
<g id="interactive-button/poweroff">
<path id="Vector" fill-rule="evenodd" clip-rule="evenodd" d="M12.8337 15.7503V2.91699H15.167V15.7503H12.8337ZM9.62617 6.42021C7.00775 7.93488 5.25033 10.7631 5.25033 14.0003C5.25033 18.8328 9.16783 22.7503 14.0003 22.7503C18.8328 22.7503 22.7503 18.8328 22.7503 14.0003C22.7503 10.7631 20.9929 7.93488 18.3745 6.42021L19.5428 4.40046C22.8526 6.31506 25.0837 9.89646 25.0837 14.0003C25.0837 20.1215 20.1215 25.0837 14.0003 25.0837C7.87917 25.0837 2.91699 20.1215 2.91699 14.0003C2.91699 9.89646 5.14804 6.31506 8.45781 4.40046L9.62617 6.42021Z" fill="black" fill-opacity="0.88"/>
</g>
</svg>
