<svg width="594" height="436" viewBox="0 0 594 436" fill="none" xmlns="http://www.w3.org/2000/svg">
<path d="M194.04 121.184L70.0908 210.064L79.1398 272.505L197.81 176.481L194.04 121.184Z" fill="#FFA386"/>
<path d="M184.958 119.074L194.122 121.236L70.1156 210.121L62.5557 206.272L184.958 119.074Z" fill="#FFCCAF"/>
<path d="M71.8708 269.758L78.8542 272.231L70.3271 209.983L62.5566 206.247L71.8708 269.758Z" fill="#FFE1D7"/>
<path d="M127.099 193.441L87.9873 221.487L90.8427 241.189L128.288 210.89L127.099 193.441Z" fill="#FFA386"/>
<path d="M124.233 192.775L127.124 193.458L87.9949 221.504L85.6094 220.29L124.233 192.775Z" fill="#FFCCAF"/>
<path d="M88.5484 240.323L90.752 241.103L88.0613 221.461L85.6094 220.282L88.5484 240.323Z" fill="#FFE1D7"/>
<path d="M127.074 193.425L124.253 192.803L85.5117 220.2M127.074 193.425L128.338 210.961L90.8178 241.174M127.074 193.425L88.015 221.402M90.8178 241.174L88.5151 240.273L85.5117 220.2M90.8178 241.174L88.015 221.402M85.5117 220.2L88.015 221.402" stroke="white" stroke-width="0.5"/>
<path d="M187.609 147.26L148.498 175.305L151.353 195.008L188.799 164.708L187.609 147.26Z" fill="#FFA386"/>
<path d="M184.743 146.594L187.635 147.276L148.506 175.323L146.12 174.108L184.743 146.594Z" fill="#FFCCAF"/>
<path d="M149.059 194.141L151.263 194.922L148.572 175.28L146.12 174.101L149.059 194.141Z" fill="#FFE1D7"/>
<path d="M187.585 147.244L184.763 146.621L146.022 174.019M187.585 147.244L188.849 164.78L151.329 194.992M187.585 147.244L148.526 175.22M151.329 194.992L149.026 194.091L146.022 174.019M151.329 194.992L148.526 175.22M146.022 174.019L148.526 175.22" stroke="white" stroke-width="0.5"/>
<path d="M78.7443 272.591L70.2541 209.847M70.2541 209.847L62.4658 206.182M70.2541 209.847L194.119 121.263M194.119 121.263L197.951 177.049M194.119 121.263L184.586 119.005" stroke="white"/>
<path d="M530.116 289.925L530.105 289.931L530.095 289.939C529.456 290.41 524.125 294.3 521.265 296.386L501.733 264.73L510.678 260.091L510.689 260.086L510.699 260.079C512.816 258.777 516.14 258.583 519.663 259.839C523.173 261.091 526.84 263.773 529.607 268.15C532.385 272.547 533.809 277.197 533.881 281.15C533.952 285.111 532.671 288.31 530.116 289.925Z" fill="#6E778A" stroke="white" stroke-width="0.686959"/>
<path d="M521.363 274.333C524.141 278.729 525.565 283.379 525.637 287.333C525.709 291.293 524.427 294.493 521.872 296.107C519.317 297.722 515.878 297.506 512.331 295.741C508.791 293.98 505.202 290.698 502.424 286.301C499.646 281.905 498.222 277.255 498.15 273.302C498.078 269.341 499.36 266.142 501.915 264.527C504.47 262.913 507.909 263.128 511.456 264.893C514.996 266.654 518.585 269.937 521.363 274.333Z" fill="#AEB3BC" stroke="white" stroke-width="0.686959"/>
<path d="M443.248 422.951L443.237 422.958L443.227 422.965C442.588 423.437 437.257 427.327 434.397 429.413L414.864 397.757L423.809 393.118L423.821 393.113L423.831 393.106C425.947 391.804 429.272 391.61 432.795 392.866C436.305 394.118 439.972 396.8 442.739 401.177C445.517 405.574 446.941 410.224 447.013 414.177C447.084 418.138 445.802 421.337 443.248 422.951Z" fill="#6E778A" stroke="white" stroke-width="0.686959"/>
<path d="M434.495 407.36C437.273 411.756 438.697 416.406 438.769 420.36C438.84 424.321 437.559 427.52 435.004 429.134C432.449 430.749 429.009 430.533 425.463 428.768C421.923 427.007 418.334 423.725 415.556 419.328C412.778 414.932 411.353 410.282 411.282 406.329C411.21 402.368 412.492 399.169 415.047 397.554C417.601 395.94 421.041 396.155 424.588 397.92C428.128 399.681 431.716 402.964 434.495 407.36Z" fill="#AEB3BC" stroke="white" stroke-width="0.686959"/>
<path d="M216.174 335.607L216.163 335.614L216.153 335.621C215.514 336.093 210.182 339.983 207.323 342.069L187.79 310.412L196.735 305.774L196.746 305.768L196.757 305.762C198.873 304.46 202.198 304.266 205.72 305.522C209.231 306.774 212.898 309.456 215.664 313.833C218.443 318.229 219.867 322.879 219.938 326.833C220.01 330.794 218.728 333.993 216.174 335.607Z" fill="#6E778A" stroke="white" stroke-width="0.686959"/>
<path d="M207.42 320.016C210.199 324.412 211.623 329.062 211.695 333.015C211.766 336.976 210.484 340.175 207.93 341.79C205.375 343.404 201.935 343.189 198.389 341.424C194.849 339.663 191.26 336.38 188.482 331.984C185.703 327.588 184.279 322.938 184.208 318.984C184.136 315.024 185.418 311.824 187.973 310.21C190.527 308.595 193.967 308.811 197.514 310.576C201.054 312.337 204.642 315.619 207.42 320.016Z" fill="#AEB3BC" stroke="white" stroke-width="0.686959"/>
<path d="M303.059 192.51L178.03 296.39L433.495 400.288L523.229 252.962L303.059 192.51Z" fill="url(#paint0_linear_358_12082)" stroke="white" stroke-width="0.515219"/>
<path d="M299.623 195.601L305.118 197.318L298.936 122.096H293.097L299.623 195.601Z" fill="#9DAABF" stroke="white" stroke-width="0.686959"/>
<path d="M308.897 193.883L305.302 197.336L298.593 119.005H302.371L308.897 193.883Z" fill="#6E778A" stroke="white" stroke-width="0.686959"/>
<path d="M184.214 77.4438L297.219 20.0828L521.511 48.935L441.137 126.561L184.214 77.4438Z" fill="url(#paint1_linear_358_12082)"/>
<path d="M539.371 31.4176L520.137 50.309L285.54 19.0523L285.627 18.5514C287.311 8.82271 296.32 2.11831 306.123 3.29996L539.371 31.4176Z" fill="#84B3FF" stroke="white" stroke-width="0.686959"/>
<path d="M297.218 20.4264L297.323 9.77124L169.101 71.6049L187.992 75.3831L297.218 20.4264Z" fill="#C1D8FD" stroke="white" stroke-width="0.686959"/>
<g filter="url(#filter0_i_358_12082)">
<ellipse cx="312.936" cy="14.2771" rx="6.20266" ry="8.16214" transform="rotate(-12.7164 312.936 14.2771)" fill="url(#paint2_linear_358_12082)"/>
</g>
<path d="M318.652 12.9874C319.133 15.1195 318.908 17.1854 318.172 18.7991C317.437 20.4124 316.201 21.5557 314.657 21.904C313.114 22.2523 311.507 21.7506 310.149 20.6096C308.792 19.4684 307.702 17.699 307.221 15.5669C306.739 13.4348 306.964 11.3688 307.7 9.75516C308.436 8.14183 309.671 6.99856 311.215 6.65023C312.759 6.30191 314.366 6.80364 315.723 7.94464C317.081 9.08585 318.17 10.8553 318.652 12.9874Z" stroke="white" stroke-width="0.686959"/>
<g filter="url(#filter1_i_358_12082)">
<path d="M312.276 22.4471C315.208 21.7854 316.914 18.2735 316.086 14.6031C315.257 10.9327 312.209 8.49372 309.276 9.15545L158.113 84.9421L169.354 95.909L312.276 22.4471Z" fill="#2478FF"/>
</g>
<path d="M312.2 22.112L312.158 22.1216L312.119 22.1416L169.417 95.4905L158.698 85.033L309.392 9.48167C312.062 8.90778 314.951 11.137 315.751 14.6787C316.554 18.2381 314.881 21.507 312.2 22.112Z" stroke="white" stroke-width="0.686959"/>
<g filter="url(#filter2_i_358_12082)">
<ellipse cx="360.662" cy="20.4651" rx="7.70545" ry="8.72307" transform="rotate(-18.6367 360.662 20.4651)" fill="url(#paint3_linear_358_12082)"/>
</g>
<path d="M367.638 18.1125C369.13 22.5368 367.156 27.1184 363.34 28.4053C359.524 29.6922 355.178 27.2421 353.686 22.8178C352.194 18.3934 354.168 13.8119 357.984 12.5249C361.8 11.238 366.146 13.6881 367.638 18.1125Z" stroke="white" stroke-width="0.686959"/>
<g filter="url(#filter3_i_358_12082)">
<path d="M361.062 29.6305C364.396 28.7557 366.21 24.6642 365.115 20.4919C364.02 16.3196 360.431 13.6464 357.097 14.5212L196.018 113.697L216.447 118.73L361.062 29.6305Z" fill="#2478FF"/>
</g>
<path d="M360.975 29.2982L360.926 29.3112L360.882 29.338L216.39 118.362L196.896 113.559L357.233 14.8409C360.305 14.07 363.723 16.5381 364.783 20.5791C365.849 24.6414 364.059 28.4888 360.975 29.2982Z" stroke="white" stroke-width="0.686959"/>
<g filter="url(#filter4_i_358_12082)">
<ellipse cx="413.235" cy="27.3071" rx="7.48874" ry="8.50734" transform="rotate(-12.7164 413.235 27.3071)" fill="url(#paint4_linear_358_12082)"/>
</g>
<path d="M420.205 25.7342C421.207 30.1738 418.843 34.4108 415.032 35.2707C411.222 36.1306 407.267 33.3195 406.265 28.8799C405.264 24.4403 407.628 20.2033 411.438 19.3435C415.249 18.4836 419.204 21.2946 420.205 25.7342Z" stroke="white" stroke-width="0.686959"/>
<g filter="url(#filter5_i_358_12082)">
<path d="M412.813 36.5315C415.621 34.8801 417.7 31.4884 416.488 27.4304C415.276 23.3724 411.666 20.8677 408.423 21.836L248.777 126.281L273.673 130.232L412.813 36.5315Z" fill="#2478FF"/>
</g>
<path d="M412.639 36.2354L412.63 36.2407L412.621 36.2466L273.593 129.872L249.709 126.081L408.569 22.1514C411.553 21.2948 414.986 23.6004 416.159 27.5287C417.317 31.4045 415.34 34.6467 412.639 36.2354Z" stroke="white" stroke-width="0.686959"/>
<g filter="url(#filter6_i_358_12082)">
<ellipse cx="475.196" cy="35.2658" rx="7.67112" ry="9.00972" transform="rotate(-12.7164 475.196 35.2658)" fill="url(#paint5_linear_358_12082)"/>
</g>
<path d="M482.344 33.6528C483.409 38.3742 481.003 42.8395 477.103 43.7194C473.204 44.5993 469.113 41.6002 468.048 36.8788C466.982 32.1574 469.389 27.692 473.288 26.8121C477.187 25.9322 481.278 28.9314 482.344 33.6528Z" stroke="white" stroke-width="0.686959"/>
<g filter="url(#filter7_i_358_12082)">
<path d="M473.875 44.6205C476.822 43.054 479.101 39.6739 478.039 35.4664C476.978 31.2589 473.392 28.5356 470.031 29.3837L327.521 129.427L346.096 139.076L473.875 44.6205Z" fill="#2478FF"/>
</g>
<path d="M473.714 44.3172L473.691 44.3291L473.671 44.3443L346.064 138.672L328.181 129.383L470.175 29.7019C473.271 28.9644 476.679 31.4798 477.706 35.5505C478.721 39.5736 476.552 42.8087 473.714 44.3172Z" stroke="white" stroke-width="0.686959"/>
<g filter="url(#filter8_i_358_12082)">
<ellipse cx="525.282" cy="41.9971" rx="7.55012" ry="8.12689" transform="rotate(-12.7164 525.282 41.9971)" fill="url(#paint6_linear_358_12082)"/>
</g>
<path d="M532.312 40.4108C533.263 44.6277 530.855 48.7187 526.995 49.5896C523.135 50.4606 519.204 47.8004 518.252 43.5835C517.3 39.3666 519.709 35.2756 523.568 34.4046C527.428 33.5337 531.36 36.1939 532.312 40.4108Z" stroke="white" stroke-width="0.686959"/>
<g filter="url(#filter9_i_358_12082)">
<path d="M527.188 52.0483C530.01 49.9847 531.869 46.1401 530.141 41.9356C528.413 37.7312 524.289 35.4419 520.93 36.8225L398.449 152.412L418.486 159.425L527.188 52.0483Z" fill="#2478FF"/>
</g>
<path d="M526.985 51.771L526.965 51.7861L526.947 51.804L418.397 159.03L399.095 152.274L521.119 37.1168C524.231 35.8838 528.149 37.9923 529.824 42.0662C531.479 46.0948 529.708 49.7803 526.985 51.771Z" stroke="white" stroke-width="0.686959"/>
<path d="M553.111 28.6697L446.632 134.461C351.488 114.425 160.308 74.2152 156.735 73.6656C153.163 73.1161 147.003 75.0395 144.37 76.07C145.172 75.383 147.53 73.7343 150.553 72.6352C154.331 71.2613 160.514 70.2308 162.575 70.5743C164.223 70.8491 349.198 107.785 441.48 126.218L539.372 31.4176C462.389 22.143 310.696 3.88438 308.752 3.65402C305.617 3.28245 302.79 2.96041 298.249 3.93928C300.997 2.56536 306.492 0.847903 309.584 0.504423C312.057 0.229639 472.966 19.1668 553.111 28.6697Z" fill="#C1D2EE" stroke="white" stroke-width="0.515219"/>
<path d="M296.418 9.50568L290.693 9.09143L163.262 70.5743L168.757 71.6047L296.418 9.50568Z" fill="#A5C7FF" stroke="white" stroke-width="0.686959"/>
<path d="M188.681 294.179L183.87 298.301C170.36 234.528 143.548 106.296 142.998 103.548C142.311 100.114 140.935 95.3048 142.309 89.8091C143.443 85.277 150.44 82.7105 153.646 82.2526C153.646 82.2526 148.494 91.87 149.181 100.8C149.574 105.923 174.297 224.935 187.562 288.796L188.681 294.179Z" fill="#6E778A" stroke="white" stroke-width="0.686959"/>
<path fill-rule="evenodd" clip-rule="evenodd" d="M446.633 134.462L160.368 73.2071C144.788 69.8733 130.947 83.7036 134.269 99.286L178.375 306.201L436.328 410.619L446.633 134.462ZM432.587 164.664L425.68 394.476L183.87 298.301L142.755 101.379L432.587 164.664Z" fill="#9DAABF"/>
<path d="M160.368 73.2071L160.314 73.459L160.368 73.2071ZM446.633 134.462L446.89 134.471L446.898 134.255L446.686 134.21L446.633 134.462ZM134.269 99.286L134.017 99.3397L134.269 99.286ZM178.375 306.201L178.123 306.255L178.152 306.389L178.278 306.44L178.375 306.201ZM436.328 410.619L436.232 410.858L436.572 410.996L436.586 410.629L436.328 410.619ZM425.68 394.476L425.585 394.715L425.926 394.851L425.938 394.483L425.68 394.476ZM432.587 164.664L432.844 164.672L432.851 164.458L432.642 164.413L432.587 164.664ZM183.87 298.301L183.618 298.354L183.647 298.489L183.775 298.541L183.87 298.301ZM142.755 101.379L142.81 101.128L142.421 101.043L142.503 101.432L142.755 101.379ZM160.314 73.459L446.579 134.713L446.686 134.21L160.422 72.9552L160.314 73.459ZM134.521 99.2323C131.238 83.8325 144.917 70.1643 160.314 73.459L160.422 72.9552C144.659 69.5823 130.656 83.5747 134.017 99.3397L134.521 99.2323ZM178.627 306.148L134.521 99.2323L134.017 99.3397L178.123 306.255L178.627 306.148ZM436.425 410.38L178.472 305.962L178.278 306.44L436.232 410.858L436.425 410.38ZM446.375 134.452L436.071 410.609L436.586 410.629L446.89 134.471L446.375 134.452ZM425.938 394.483L432.844 164.672L432.329 164.657L425.423 394.468L425.938 394.483ZM183.775 298.541L425.585 394.715L425.775 394.236L183.966 298.062L183.775 298.541ZM142.503 101.432L183.618 298.354L184.123 298.249L143.007 101.327L142.503 101.432ZM142.7 101.631L432.532 164.916L432.642 164.413L142.81 101.128L142.7 101.631Z" fill="white"/>
<path d="M522.428 254.612L544.868 59.583H536.968L515.921 252.924L522.428 254.612Z" fill="#9DAABF" stroke="white" stroke-width="0.686959"/>
<path fill-rule="evenodd" clip-rule="evenodd" d="M446.811 134.653L436.328 410.963L525.289 262.923L553.111 29.3568L446.811 134.653ZM449.724 163.657L440.45 390.01L522.667 254.709L545.211 60.6135L449.724 163.657Z" fill="#6E778A"/>
<g filter="url(#filter10_dii_358_12082)">
<path d="M492.658 139.957C482.01 143.049 448.693 145.796 448.006 145.11C446.976 144.079 446.976 142.362 446.976 139.27C446.976 136.179 448.177 132.895 452.128 132.401C456.899 131.804 476.858 131.37 491.284 126.218C501.245 122.661 506.659 119.349 513.611 112.822C530.441 97.0224 578.528 41.0352 578.872 40.3483C579.215 39.6613 574.406 40.0046 569.254 40.0046C563.415 40.0046 551.737 40.6918 550.706 40.3483C549.676 40.0048 549.676 40.0048 549.676 37.6004C549.676 35.1961 551.05 32.4481 551.393 31.7611C551.737 31.0742 561.7 30.4383 570.972 30.0437C587.115 29.3568 590.55 32.4482 590.207 39.6613C589.863 46.8744 532.462 112.135 520.824 124.501C514.298 131.435 503.306 136.866 492.658 139.957Z" fill="#AEB3BC"/>
<path d="M492.658 139.957C482.01 143.049 448.693 145.796 448.006 145.11C446.976 144.079 446.976 142.362 446.976 139.27C446.976 136.179 448.177 132.895 452.128 132.401C456.899 131.804 476.858 131.37 491.284 126.218C501.245 122.661 506.659 119.349 513.611 112.822C530.441 97.0224 578.528 41.0352 578.872 40.3483C579.215 39.6613 574.406 40.0046 569.254 40.0046C563.415 40.0046 551.737 40.6918 550.706 40.3483C549.676 40.0048 549.676 40.0048 549.676 37.6004C549.676 35.1961 551.05 32.4481 551.393 31.7611C551.737 31.0742 561.7 30.4383 570.972 30.0437C587.115 29.3568 590.55 32.4482 590.207 39.6613C589.863 46.8744 532.462 112.135 520.824 124.501C514.298 131.435 503.306 136.866 492.658 139.957Z" stroke="white" stroke-width="0.686959"/>
</g>
<path d="M228.222 179.175L279.755 197.841L261.778 214.564L213.158 195.945L204.593 205.479L194.122 173.718L236.055 170.455L228.222 179.175Z" fill="url(#paint7_linear_358_12082)"/>
<path d="M154.546 239.412L206.079 258.078L188.101 274.802L139.481 256.182L130.916 265.717L120.445 233.956L162.379 230.693L154.546 239.412Z" fill="url(#paint8_linear_358_12082)"/>
<defs>
<filter id="filter0_i_358_12082" x="306.623" y="6.19763" width="14.6869" height="16.1589" filterUnits="userSpaceOnUse" color-interpolation-filters="sRGB">
<feFlood flood-opacity="0" result="BackgroundImageFix"/>
<feBlend mode="normal" in="SourceGraphic" in2="BackgroundImageFix" result="shape"/>
<feColorMatrix in="SourceAlpha" type="matrix" values="0 0 0 0 0 0 0 0 0 0 0 0 0 0 0 0 0 0 127 0" result="hardAlpha"/>
<feOffset dx="2.06088"/>
<feGaussianBlur stdDeviation="2.06088"/>
<feComposite in2="hardAlpha" operator="arithmetic" k2="-1" k3="1"/>
<feColorMatrix type="matrix" values="0 0 0 0 0.517647 0 0 0 0 0.701961 0 0 0 0 1 0 0 0 0.43 0"/>
<feBlend mode="normal" in2="shape" result="effect1_innerShadow_358_12082"/>
</filter>
<filter id="filter1_i_358_12082" x="158.112" y="9.04712" width="162.991" height="88.9228" filterUnits="userSpaceOnUse" color-interpolation-filters="sRGB">
<feFlood flood-opacity="0" result="BackgroundImageFix"/>
<feBlend mode="normal" in="SourceGraphic" in2="BackgroundImageFix" result="shape"/>
<feColorMatrix in="SourceAlpha" type="matrix" values="0 0 0 0 0 0 0 0 0 0 0 0 0 0 0 0 0 0 127 0" result="hardAlpha"/>
<feOffset dx="4.80871" dy="2.06088"/>
<feGaussianBlur stdDeviation="2.64479"/>
<feComposite in2="hardAlpha" operator="arithmetic" k2="-1" k3="1"/>
<feColorMatrix type="matrix" values="0 0 0 0 1 0 0 0 0 1 0 0 0 0 1 0 0 0 0.6 0"/>
<feBlend mode="normal" in2="shape" result="effect1_innerShadow_358_12082"/>
</filter>
<filter id="filter2_i_358_12082" x="352.845" y="11.8383" width="17.6956" height="17.2538" filterUnits="userSpaceOnUse" color-interpolation-filters="sRGB">
<feFlood flood-opacity="0" result="BackgroundImageFix"/>
<feBlend mode="normal" in="SourceGraphic" in2="BackgroundImageFix" result="shape"/>
<feColorMatrix in="SourceAlpha" type="matrix" values="0 0 0 0 0 0 0 0 0 0 0 0 0 0 0 0 0 0 127 0" result="hardAlpha"/>
<feOffset dx="2.06088"/>
<feGaussianBlur stdDeviation="2.06088"/>
<feComposite in2="hardAlpha" operator="arithmetic" k2="-1" k3="1"/>
<feColorMatrix type="matrix" values="0 0 0 0 0.517647 0 0 0 0 0.701961 0 0 0 0 1 0 0 0 0.43 0"/>
<feBlend mode="normal" in2="shape" result="effect1_innerShadow_358_12082"/>
</filter>
<filter id="filter3_i_358_12082" x="196.018" y="14.3553" width="174.226" height="106.436" filterUnits="userSpaceOnUse" color-interpolation-filters="sRGB">
<feFlood flood-opacity="0" result="BackgroundImageFix"/>
<feBlend mode="normal" in="SourceGraphic" in2="BackgroundImageFix" result="shape"/>
<feColorMatrix in="SourceAlpha" type="matrix" values="0 0 0 0 0 0 0 0 0 0 0 0 0 0 0 0 0 0 127 0" result="hardAlpha"/>
<feOffset dx="4.80871" dy="2.06088"/>
<feGaussianBlur stdDeviation="2.64479"/>
<feComposite in2="hardAlpha" operator="arithmetic" k2="-1" k3="1"/>
<feColorMatrix type="matrix" values="0 0 0 0 1 0 0 0 0 1 0 0 0 0 1 0 0 0 0.6 0"/>
<feBlend mode="normal" in2="shape" result="effect1_innerShadow_358_12082"/>
</filter>
<filter id="filter4_i_358_12082" x="405.692" y="18.8446" width="17.1468" height="16.9249" filterUnits="userSpaceOnUse" color-interpolation-filters="sRGB">
<feFlood flood-opacity="0" result="BackgroundImageFix"/>
<feBlend mode="normal" in="SourceGraphic" in2="BackgroundImageFix" result="shape"/>
<feColorMatrix in="SourceAlpha" type="matrix" values="0 0 0 0 0 0 0 0 0 0 0 0 0 0 0 0 0 0 127 0" result="hardAlpha"/>
<feOffset dx="2.06088"/>
<feGaussianBlur stdDeviation="2.06088"/>
<feComposite in2="hardAlpha" operator="arithmetic" k2="-1" k3="1"/>
<feColorMatrix type="matrix" values="0 0 0 0 0.517647 0 0 0 0 0.701961 0 0 0 0 1 0 0 0 0.43 0"/>
<feBlend mode="normal" in2="shape" result="effect1_innerShadow_358_12082"/>
</filter>
<filter id="filter5_i_358_12082" x="248.776" y="21.6281" width="172.873" height="110.665" filterUnits="userSpaceOnUse" color-interpolation-filters="sRGB">
<feFlood flood-opacity="0" result="BackgroundImageFix"/>
<feBlend mode="normal" in="SourceGraphic" in2="BackgroundImageFix" result="shape"/>
<feColorMatrix in="SourceAlpha" type="matrix" values="0 0 0 0 0 0 0 0 0 0 0 0 0 0 0 0 0 0 127 0" result="hardAlpha"/>
<feOffset dx="4.80871" dy="2.06088"/>
<feGaussianBlur stdDeviation="2.64479"/>
<feComposite in2="hardAlpha" operator="arithmetic" k2="-1" k3="1"/>
<feColorMatrix type="matrix" values="0 0 0 0 1 0 0 0 0 1 0 0 0 0 1 0 0 0 0.6 0"/>
<feBlend mode="normal" in2="shape" result="effect1_innerShadow_358_12082"/>
</filter>
<filter id="filter6_i_358_12082" x="467.452" y="26.3147" width="17.5472" height="17.9022" filterUnits="userSpaceOnUse" color-interpolation-filters="sRGB">
<feFlood flood-opacity="0" result="BackgroundImageFix"/>
<feBlend mode="normal" in="SourceGraphic" in2="BackgroundImageFix" result="shape"/>
<feColorMatrix in="SourceAlpha" type="matrix" values="0 0 0 0 0 0 0 0 0 0 0 0 0 0 0 0 0 0 127 0" result="hardAlpha"/>
<feOffset dx="2.06088"/>
<feGaussianBlur stdDeviation="2.06088"/>
<feComposite in2="hardAlpha" operator="arithmetic" k2="-1" k3="1"/>
<feColorMatrix type="matrix" values="0 0 0 0 0.517647 0 0 0 0 0.701961 0 0 0 0 1 0 0 0 0.43 0"/>
<feBlend mode="normal" in2="shape" result="effect1_innerShadow_358_12082"/>
</filter>
<filter id="filter7_i_358_12082" x="327.521" y="29.229" width="155.592" height="111.908" filterUnits="userSpaceOnUse" color-interpolation-filters="sRGB">
<feFlood flood-opacity="0" result="BackgroundImageFix"/>
<feBlend mode="normal" in="SourceGraphic" in2="BackgroundImageFix" result="shape"/>
<feColorMatrix in="SourceAlpha" type="matrix" values="0 0 0 0 0 0 0 0 0 0 0 0 0 0 0 0 0 0 127 0" result="hardAlpha"/>
<feOffset dx="4.80871" dy="2.06088"/>
<feGaussianBlur stdDeviation="2.64479"/>
<feComposite in2="hardAlpha" operator="arithmetic" k2="-1" k3="1"/>
<feColorMatrix type="matrix" values="0 0 0 0 1 0 0 0 0 1 0 0 0 0 1 0 0 0 0.6 0"/>
<feBlend mode="normal" in2="shape" result="effect1_innerShadow_358_12082"/>
</filter>
<filter id="filter8_i_358_12082" x="517.701" y="33.8956" width="17.222" height="16.203" filterUnits="userSpaceOnUse" color-interpolation-filters="sRGB">
<feFlood flood-opacity="0" result="BackgroundImageFix"/>
<feBlend mode="normal" in="SourceGraphic" in2="BackgroundImageFix" result="shape"/>
<feColorMatrix in="SourceAlpha" type="matrix" values="0 0 0 0 0 0 0 0 0 0 0 0 0 0 0 0 0 0 127 0" result="hardAlpha"/>
<feOffset dx="2.06088"/>
<feGaussianBlur stdDeviation="2.06088"/>
<feComposite in2="hardAlpha" operator="arithmetic" k2="-1" k3="1"/>
<feColorMatrix type="matrix" values="0 0 0 0 0.517647 0 0 0 0 0.701961 0 0 0 0 1 0 0 0 0.43 0"/>
<feBlend mode="normal" in2="shape" result="effect1_innerShadow_358_12082"/>
</filter>
<filter id="filter9_i_358_12082" x="398.449" y="36.4204" width="137.168" height="125.065" filterUnits="userSpaceOnUse" color-interpolation-filters="sRGB">
<feFlood flood-opacity="0" result="BackgroundImageFix"/>
<feBlend mode="normal" in="SourceGraphic" in2="BackgroundImageFix" result="shape"/>
<feColorMatrix in="SourceAlpha" type="matrix" values="0 0 0 0 0 0 0 0 0 0 0 0 0 0 0 0 0 0 127 0" result="hardAlpha"/>
<feOffset dx="4.80871" dy="2.06088"/>
<feGaussianBlur stdDeviation="2.64479"/>
<feComposite in2="hardAlpha" operator="arithmetic" k2="-1" k3="1"/>
<feColorMatrix type="matrix" values="0 0 0 0 1 0 0 0 0 1 0 0 0 0 1 0 0 0 0.6 0"/>
<feBlend mode="normal" in2="shape" result="effect1_innerShadow_358_12082"/>
</filter>
<filter id="filter10_dii_358_12082" x="441.823" y="27.2023" width="151.497" height="123.853" filterUnits="userSpaceOnUse" color-interpolation-filters="sRGB">
<feFlood flood-opacity="0" result="BackgroundImageFix"/>
<feColorMatrix in="SourceAlpha" type="matrix" values="0 0 0 0 0 0 0 0 0 0 0 0 0 0 0 0 0 0 127 0" result="hardAlpha"/>
<feOffset dy="2.74784"/>
<feGaussianBlur stdDeviation="1.37392"/>
<feComposite in2="hardAlpha" operator="out"/>
<feColorMatrix type="matrix" values="0 0 0 0 0 0 0 0 0 0 0 0 0 0 0 0 0 0 0.07 0"/>
<feBlend mode="normal" in2="BackgroundImageFix" result="effect1_dropShadow_358_12082"/>
<feBlend mode="normal" in="SourceGraphic" in2="effect1_dropShadow_358_12082" result="shape"/>
<feColorMatrix in="SourceAlpha" type="matrix" values="0 0 0 0 0 0 0 0 0 0 0 0 0 0 0 0 0 0 127 0" result="hardAlpha"/>
<feOffset dx="-4.80871" dy="0.686959"/>
<feGaussianBlur stdDeviation="3.02262"/>
<feComposite in2="hardAlpha" operator="arithmetic" k2="-1" k3="1"/>
<feColorMatrix type="matrix" values="0 0 0 0 1 0 0 0 0 1 0 0 0 0 1 0 0 0 0.4 0"/>
<feBlend mode="normal" in2="shape" result="effect2_innerShadow_358_12082"/>
<feColorMatrix in="SourceAlpha" type="matrix" values="0 0 0 0 0 0 0 0 0 0 0 0 0 0 0 0 0 0 127 0" result="hardAlpha"/>
<feOffset dx="1.37392" dy="-4.12175"/>
<feGaussianBlur stdDeviation="1.20218"/>
<feComposite in2="hardAlpha" operator="arithmetic" k2="-1" k3="1"/>
<feColorMatrix type="matrix" values="0 0 0 0 0.431373 0 0 0 0 0.466667 0 0 0 0 0.541176 0 0 0 0.56 0"/>
<feBlend mode="normal" in2="effect2_innerShadow_358_12082" result="effect3_innerShadow_358_12082"/>
</filter>
<linearGradient id="paint0_linear_358_12082" x1="125.961" y1="222.291" x2="506.014" y2="305.959" gradientUnits="userSpaceOnUse">
<stop stop-color="#C3DAFF"/>
<stop offset="1" stop-color="#DAE8FF"/>
</linearGradient>
<linearGradient id="paint1_linear_358_12082" x1="133.337" y1="35.3447" x2="464.362" y2="174.295" gradientUnits="userSpaceOnUse">
<stop stop-color="#C3DAFF"/>
<stop offset="1" stop-color="#DAE8FF"/>
</linearGradient>
<linearGradient id="paint2_linear_358_12082" x1="312.936" y1="6.11497" x2="312.936" y2="22.4393" gradientUnits="userSpaceOnUse">
<stop stop-color="white"/>
<stop offset="1" stop-color="#C1D7FB"/>
</linearGradient>
<linearGradient id="paint3_linear_358_12082" x1="360.662" y1="11.7421" x2="360.662" y2="29.1882" gradientUnits="userSpaceOnUse">
<stop stop-color="white"/>
<stop offset="1" stop-color="#C1D7FB"/>
</linearGradient>
<linearGradient id="paint4_linear_358_12082" x1="413.235" y1="18.7997" x2="413.235" y2="35.8144" gradientUnits="userSpaceOnUse">
<stop stop-color="white"/>
<stop offset="1" stop-color="#C1D7FB"/>
</linearGradient>
<linearGradient id="paint5_linear_358_12082" x1="475.196" y1="26.256" x2="475.196" y2="44.2755" gradientUnits="userSpaceOnUse">
<stop stop-color="white"/>
<stop offset="1" stop-color="#C1D7FB"/>
</linearGradient>
<linearGradient id="paint6_linear_358_12082" x1="525.282" y1="33.8703" x2="525.282" y2="50.124" gradientUnits="userSpaceOnUse">
<stop stop-color="white"/>
<stop offset="1" stop-color="#C1D7FB"/>
</linearGradient>
<linearGradient id="paint7_linear_358_12082" x1="229.365" y1="170.455" x2="264.81" y2="212.682" gradientUnits="userSpaceOnUse">
<stop stop-color="#4473FF"/>
<stop offset="0.947506" stop-color="#4473FF" stop-opacity="0"/>
</linearGradient>
<linearGradient id="paint8_linear_358_12082" x1="155.688" y1="230.693" x2="191.133" y2="272.919" gradientUnits="userSpaceOnUse">
<stop stop-color="#4473FF"/>
<stop offset="0.947506" stop-color="#4473FF" stop-opacity="0"/>
</linearGradient>
</defs>
</svg>
