<svg width="16" height="16" viewBox="0 0 16 16" fill="none" xmlns="http://www.w3.org/2000/svg">
<g id="Ellipsis">
<rect width="16" height="16" rx="8" fill="#F5F5F5"/>
<path id="Vector" d="M2 7.98425C2 8.11557 2.02587 8.24561 2.07612 8.36694C2.12638 8.48826 2.20003 8.5985 2.29289 8.69136C2.38575 8.78422 2.49599 8.85788 2.61732 8.90813C2.73864 8.95839 2.86868 8.98425 3 8.98425C3.13132 8.98425 3.26136 8.95839 3.38268 8.90813C3.50401 8.85788 3.61425 8.78422 3.70711 8.69136C3.79997 8.5985 3.87362 8.48826 3.92388 8.36694C3.97413 8.24561 4 8.11557 4 7.98425C4 7.85293 3.97413 7.7229 3.92388 7.60157C3.87362 7.48024 3.79997 7.37 3.70711 7.27715C3.61425 7.18429 3.50401 7.11063 3.38268 7.06037C3.26136 7.01012 3.13132 6.98425 3 6.98425C2.86868 6.98425 2.73864 7.01012 2.61732 7.06037C2.49599 7.11063 2.38575 7.18429 2.29289 7.27715C2.20003 7.37 2.12638 7.48024 2.07612 7.60157C2.02587 7.7229 2 7.85293 2 7.98425ZM7 7.98425C7 8.24947 7.10536 8.50382 7.29289 8.69136C7.48043 8.8789 7.73478 8.98425 8 8.98425C8.26522 8.98425 8.51957 8.8789 8.70711 8.69136C8.89464 8.50382 9 8.24947 9 7.98425C9 7.71904 8.89464 7.46468 8.70711 7.27715C8.51957 7.08961 8.26522 6.98425 8 6.98425C7.73478 6.98425 7.48043 7.08961 7.29289 7.27715C7.10536 7.46468 7 7.71904 7 7.98425ZM12 7.98425C12 8.24947 12.1054 8.50382 12.2929 8.69136C12.4804 8.8789 12.7348 8.98425 13 8.98425C13.2652 8.98425 13.5196 8.8789 13.7071 8.69136C13.8946 8.50382 14 8.24947 14 7.98425C14 7.71904 13.8946 7.46468 13.7071 7.27715C13.5196 7.08961 13.2652 6.98425 13 6.98425C12.7348 6.98425 12.4804 7.08961 12.2929 7.27715C12.1054 7.46468 12 7.71904 12 7.98425Z" fill="#1D2129"/>
</g>
</svg>
