<svg width="24" height="24" viewBox="0 0 24 24" fill="none" xmlns="http://www.w3.org/2000/svg">
<g clip-path="url(#clip0_437_13727)">
<path fill-rule="evenodd" clip-rule="evenodd" d="M12.0002 3.13773e-07C7.1467 3.13773e-07 2.77113 2.92366 0.913783 7.40769C-0.943562 11.8917 0.0830924 17.0531 3.51502 20.485C6.94694 23.9169 12.1083 24.9436 16.5923 23.0862C21.0763 21.2289 24 16.8533 24 11.9998C24.0007 8.81705 22.7367 5.76443 20.4861 3.51386C18.2356 1.2633 15.1829 -0.000727091 12.0002 3.13773e-07ZM12 22.4076L10.5042 8.49474C10.5118 8.42536 10.5374 8.35916 10.5783 8.30261C10.6289 8.26126 10.6879 8.23131 10.7512 8.21478H13.2489C13.3121 8.23131 13.3711 8.26126 13.4218 8.30261C13.4627 8.35916 13.4882 8.42536 13.4959 8.49474L12 22.4076ZM14.7534 8.02271C14.9611 7.9691 15.1626 7.89366 15.3545 7.79764L20.0424 5.55522H18.5795L17.2071 6.35667C17.1548 6.38775 17.0873 6.37055 17.0562 6.31825C17.0251 6.26595 17.0423 6.19837 17.0946 6.16729L18.1513 5.55522H17.2538L15.8979 6.34295C15.8447 6.37218 15.778 6.35397 15.747 6.30178C15.7323 6.27678 15.7284 6.24689 15.7361 6.21895C15.7439 6.19101 15.7627 6.16742 15.7881 6.15357L16.8174 5.55522H15.8595L13.6637 6.71623C13.594 6.747 13.5213 6.7709 13.4469 6.78759C13.3564 6.80669 13.2647 6.81953 13.1724 6.82602H13.0297C12.9829 6.75685 12.9046 6.71565 12.8211 6.71623H11.2017C11.1182 6.71565 11.04 6.75685 10.9931 6.82602H10.8504C10.7582 6.81953 10.6665 6.80669 10.576 6.78759C10.4973 6.76719 10.4209 6.73867 10.3481 6.70251L8.15239 5.5415H7.19449L8.22375 6.13984C8.27557 6.16977 8.29388 6.23569 8.26492 6.28806C8.23393 6.34024 8.16715 6.35846 8.11396 6.32923L6.76082 5.5415H5.86056L6.91453 6.15357C6.94836 6.17367 6.96889 6.21029 6.9684 6.24964C6.96791 6.28899 6.94646 6.32509 6.91213 6.34433C6.87781 6.36358 6.83582 6.36305 6.80199 6.34295L5.42964 5.5415H3.94751L8.64094 7.79764C8.83281 7.89366 9.03429 7.9691 9.24203 8.02271C9.43787 8.06295 9.63784 8.07954 9.83763 8.07211H10.0517C10.1347 8.07345 10.2174 8.06045 10.296 8.03369C10.47 7.94269 10.6653 7.90003 10.8614 7.91017H13.1285C13.3246 7.90003 13.5199 7.94269 13.6939 8.03369C13.7725 8.06045 13.8552 8.07345 13.9382 8.07211H14.1578C14.3576 8.07954 14.5575 8.06295 14.7534 8.02271Z" fill="#0062FF"/>
</g>
<defs>
<clipPath id="clip0_437_13727">
<rect width="24" height="24" fill="white"/>
</clipPath>
</defs>
</svg>
