<svg width="43" height="24" viewBox="0 0 43 24" fill="none" xmlns="http://www.w3.org/2000/svg">
<path id="&#231;&#148;&#181;&#230;&#177;&#160;&#229;&#164;&#150;&#230;&#161;&#134;" fill-rule="evenodd" clip-rule="evenodd" d="M36.3848 0.836914H4.96176C2.67828 0.836914 0.827148 2.75569 0.827148 5.12263V18.8369C0.827148 21.2038 2.67828 23.1226 4.96176 23.1226H36.3848C38.6683 23.1226 40.5195 21.2038 40.5195 18.8369V17.1226H41.0002C42.1048 17.1226 43.0002 16.2272 43.0002 15.1226V8.83691C43.0002 7.73234 42.1048 6.83691 41.0002 6.83691H40.5195V5.12263C40.5195 2.75569 38.6683 0.836914 36.3848 0.836914ZM4.96176 2.5512H36.3848C37.7549 2.5512 38.8656 3.70247 38.8656 5.12263V18.8369C38.8656 20.2571 37.7549 21.4083 36.3848 21.4083H4.96176C3.59167 21.4083 2.48099 20.2571 2.48099 18.8369V5.12263C2.48099 3.70247 3.59167 2.5512 4.96176 2.5512Z" fill="#31DC72"/>
</svg>
