<svg width="111" height="111" viewBox="0 0 111 111" fill="none" xmlns="http://www.w3.org/2000/svg">
<g id="&#230;&#156;&#137;&#232;&#180;&#167;&#230;&#158;&#182;&#228;&#184;&#148;&#232;&#180;&#167;&#230;&#158;&#182;&#229;&#134;&#133;&#230;&#156;&#137;&#232;&#180;&#167;&#231;&#137;&#169;">
<path id="Vector" d="M99.8066 87.6995C99.8066 85.5239 98.4797 83.6569 96.5818 82.87V81.2653C96.5818 79.0897 95.2549 77.2227 93.357 76.4358V47.8446H94.5605C95.6715 47.8446 96.5664 46.9496 96.5664 45.8387V37.7844C96.5664 36.6735 95.6715 35.7785 94.5605 35.7785L39.816 35.4375C38.7051 35.4375 37.8102 36.3324 37.8102 37.4434V45.8387C37.8102 46.9496 38.7051 47.8446 39.816 47.8446H41.0195V76.0192H32.5641V14.928C41.1275 12.6135 36.8569 13.9434 36.8569 13.9434C38.5388 13.4959 35.1288 13.9434 36.8569 13.9434C35.7769 14.2211 35.3569 9.44337 35.3569 9.44337C35.6347 10.5234 34.2923 9.7211 35.3569 9.44337C36.6993 9.08849 33.9683 9.44337 35.3569 9.44337C34.3569 9.44337 37.5479 10.1293 29.8947 11.3791C29.8176 11.3946 29.725 11.41 29.6479 11.4254C29.4936 11.4408 29.3238 11.4717 29.1541 11.4871C29.0461 11.5026 28.9535 11.518 28.8455 11.518C28.7066 11.5334 28.5678 11.5334 28.4289 11.5489C28.3055 11.5643 28.182 11.5643 28.0586 11.5797C27.9352 11.5797 27.7963 11.5797 27.6729 11.5951H26.9477C26.8242 11.5951 26.6853 11.5951 26.5619 11.5797C26.4385 11.5797 26.315 11.5643 26.1916 11.5489C26.0527 11.5334 25.9139 11.5334 25.775 11.518C25.667 11.5026 25.5744 11.5026 25.4664 11.4871C25.2967 11.4717 25.1424 11.4563 24.9727 11.4254C24.8955 11.41 24.8029 11.3946 24.7258 11.3946C17.0727 10.1602 27.8569 11.4434 23.8569 10.9434C24.829 11.4988 24.4124 9.98674 23.8569 10.9434C24.4124 9.97131 22.9003 10.3879 23.8569 10.9434C22.0979 13.9985 22.3569 7.42542 22.3569 10.9434L22.0719 14.9434V76.0346H15.6377C12.7523 76.0346 10.407 78.3799 10.407 81.2653V82.87C8.52461 83.6569 7.18223 85.5239 7.18223 87.6995C7.18223 89.8751 8.50919 91.7421 10.407 92.529V94.1337C10.407 97.019 12.7523 99.3643 15.6377 99.3643C18.523 99.3643 20.8684 97.019 20.8684 94.1337V92.9301H86.1205V94.1337C86.1205 97.019 88.4658 99.3643 91.3512 99.3643C94.2365 99.3643 96.5818 97.019 96.5818 94.1337V92.529C98.4643 91.7421 99.8066 89.8751 99.8066 87.6995ZM12.4592 88.903C11.8111 88.903 11.2557 88.3475 11.2557 87.6995C11.2557 87.0514 11.8111 86.496 12.4592 86.496H94.576C95.224 86.496 95.7795 87.0514 95.7795 87.6995C95.7795 88.3475 95.224 88.903 94.576 88.903H12.4592ZM92.5547 43.8174H77.2639V39.7903H92.5547V43.8174ZM61.1553 47.8446H73.2367V54.6491L72.1258 54.0936C71.5549 53.8159 70.8914 53.8159 70.3205 54.0936L67.1883 55.652L64.0561 54.0936C63.4852 53.8159 62.8217 53.8159 62.2508 54.0936L61.1398 54.6491V47.8446H61.1553ZM61.1553 43.8174V39.7903H73.2367V43.8174H61.1553ZM41.8373 39.8057H57.1281V43.8328H41.8373V39.8057ZM45.0621 47.8446H57.1436V57.9047C57.1436 58.5991 57.4984 59.2471 58.1002 59.6174C58.6865 59.9878 59.4272 60.0186 60.0598 59.71L63.192 58.1516L66.3242 59.71C66.8951 59.9877 67.5586 59.9877 68.1295 59.71L71.2617 58.1516L74.3785 59.71C74.6562 59.8489 74.9648 59.926 75.2734 59.926C75.6437 59.926 76.0141 59.818 76.3381 59.6174C76.9244 59.2471 77.2947 58.5991 77.2947 57.9047V47.8446H89.3762V76.0192H45.093V47.8446H45.0621ZM26.1453 15.5914H26.207C26.3459 15.5914 26.4693 15.6069 26.6082 15.6069H26.7779C26.9631 15.6069 27.1637 15.6223 27.3488 15.6223C27.534 15.6223 27.7346 15.6223 27.9197 15.6069H28.0895C28.2283 15.6069 28.3672 15.5914 28.4906 15.5914H28.5523V76.0346H26.1299V15.5914H26.1453ZM14.465 81.2653C14.465 80.6172 15.0205 80.0618 15.6686 80.0618H91.3512C91.9992 80.0618 92.5547 80.6172 92.5547 81.2653V82.4688H14.465V81.2653ZM16.8875 94.1337C16.8875 94.7817 16.332 95.3372 15.684 95.3372C15.0359 95.3372 14.4805 94.7817 14.4805 94.1337V92.9301H16.9029V94.1337H16.8875ZM92.5547 94.1337C92.5547 94.7817 91.9992 95.3372 91.3512 95.3372C90.7031 95.3372 90.1477 94.7817 90.1477 94.1337V92.9301H92.5701V94.1337H92.5547Z" fill="#4E5969"/>
<path id="Vector_2" d="M71.2773 69.9861H71.2311C70.1201 69.9861 69.2252 70.881 69.2252 71.9919C69.2252 73.1029 70.1201 73.9978 71.2311 73.9978H71.2773C72.3883 73.9978 73.2832 73.1029 73.2832 71.9919C73.2832 70.8964 72.3883 69.9861 71.2773 69.9861ZM85.3184 69.9861H77.0635C75.9525 69.9861 75.0576 70.881 75.0576 71.9919C75.0576 73.1029 75.9525 73.9978 77.0635 73.9978H85.3184C86.4293 73.9978 87.3242 73.1029 87.3242 71.9919C87.3242 70.8964 86.4293 69.9861 85.3184 69.9861Z" fill="#4E5969"/>
<rect id="Rectangle 967" width="30" height="8" transform="matrix(-1 0 0 1 41.8574 8.44336)" fill="#4E5969"/>
</g>
</svg>
